<svg width="1200" height="800" viewBox="0 0 1200 800" xmlns="http://www.w3.org/2000/svg"><defs><pattern id="satori_pattern_id_0" x="0" y="0" width="1" height="1" patternUnits="objectBoundingBox"><linearGradient id="satori_biid_0" x1="-0.07692307692307718" y1="0.115384615384616" x2="1.076923076923077" y2="0.8846153846153839" spreadMethod="pad"><stop offset="0%" stop-color="#1e3a8a"/><stop offset="100%" stop-color="#1e40af"/></linearGradient><rect x="0" y="0" width="1200" height="800" fill="url(#satori_biid_0)"/></pattern></defs><mask id="satori_om-id"><rect x="0" y="0" width="1200" height="800" fill="#fff"/></mask><rect x="0" y="0" width="1200" height="800" fill="url(#satori_pattern_id_0)"/><mask id="satori_om-id-0"><rect x="64" y="64" width="1072" height="44" fill="#fff"/></mask><clipPath id="satori_cp-id-0-0"><rect x="64" y="66" width="40" height="40"/></clipPath><mask id="satori_om-id-0-0"><rect x="64" y="66" width="40" height="40" fill="#fff"/></mask><image x="64" y="66" width="40" height="40" href="data:image/svg+xml;utf8,%3Csvg  xmlns=%22http://www.w3.org/2000/svg%22 fill=%22none%22 stroke=%22%23ffffff%22 stroke-width=%222%22 stroke-linecap=%22round%22 stroke-linejoin=%22round%22 width=%2224%22 height=%2224%22 viewBox=%220 0 24 24%22%3E%3Ccircle cx=%2212%22 cy=%2212%22 r=%2210%22%3E%3C/circle%3E%3Cpolyline points=%2212 6 12 12 16 14%22%3E%3C/polyline%3E%3C/svg%3E" preserveAspectRatio="none" clip-path="url(#satori_cp-id-0-0)" mask="url(#satori_om-id-0-0)"/><mask id="satori_om-id-0-0-0"><rect x="64" y="66" width="0" height="40" fill="#fff"/></mask><mask id="satori_om-id-0-0-1"><rect x="64" y="66" width="0" height="40" fill="#fff"/></mask><mask id="satori_om-id-0-1"><rect x="116" y="64" width="141" height="44" fill="#fff"/></mask><g  ><path fill="#ffffff" d="M123.3 99L118.5 99L118.5 72.8L123.8 72.8L132.9 87.3Q133.4 88.1 134.0 89.2Q134.6 90.3 135.3 91.6Q136.0 93.0 136.6 94.6L136.6 94.6L136.1 94.8Q136.0 93.4 135.9 91.9Q135.8 90.4 135.8 89.0Q135.7 87.6 135.7 86.7L135.7 86.7L135.7 72.8L140.5 72.8L140.5 99L135.2 99L127.0 86.0Q126.3 84.8 125.6 83.6Q124.9 82.4 124.1 80.9Q123.3 79.4 122.2 77.3L122.2 77.3L122.9 77.2Q123.0 79.1 123.1 80.8Q123.2 82.5 123.2 83.8Q123.3 85.1 123.3 86.0L123.3 86.0L123.3 99ZM153.9 99.4L153.9 99.4Q151.0 99.4 148.9 98.2Q146.8 96.9 145.6 94.7Q144.5 92.4 144.5 89.4L144.5 89.4Q144.5 86.4 145.6 84.1Q146.7 81.9 148.8 80.6Q150.9 79.3 153.6 79.3L153.6 79.3Q155.5 79.3 157.1 79.9Q158.7 80.5 160.0 81.7Q161.2 83.0 161.9 84.8Q162.6 86.7 162.6 89.2L162.6 89.2L162.6 90.5L146.6 90.5L146.6 87.5L160.3 87.5L158.2 88.3Q158.2 86.7 157.7 85.5Q157.2 84.2 156.2 83.6Q155.2 82.9 153.7 82.9L153.7 82.9Q152.2 82.9 151.1 83.6Q150.1 84.3 149.5 85.4Q149.0 86.6 149.0 88.1L149.0 88.1L149.0 90.2Q149.0 92.0 149.6 93.3Q150.2 94.5 151.3 95.2Q152.5 95.8 154.0 95.8L154.0 95.8Q155.0 95.8 155.8 95.5Q156.7 95.2 157.2 94.7Q157.8 94.1 158.1 93.3L158.1 93.3L162.3 93.9Q161.9 95.6 160.7 96.8Q159.6 98.0 157.8 98.7Q156.1 99.4 153.9 99.4ZM175.1 99L170.5 99L164.7 79.6L169.5 79.6L171.4 87.2Q171.8 89.1 172.4 91.3Q172.9 93.5 173.4 96.1L173.4 96.1L172.8 96.1Q173.3 93.6 173.8 91.3Q174.3 89.1 174.8 87.2L174.8 87.2L176.8 79.6L181.1 79.6L183.0 87.2Q183.5 89.1 184.1 91.3Q184.6 93.5 185.1 96.1L185.1 96.1L184.5 96.1Q185.0 93.6 185.5 91.3Q186.0 89.1 186.5 87.2L186.5 87.2L188.4 79.6L193.2 79.6L187.4 99L182.7 99L180.5 91.0Q180.1 89.9 179.8 88.5Q179.5 87.2 179.1 85.8Q178.8 84.4 178.5 83.1L178.5 83.1L179.4 83.1Q179.1 84.4 178.7 85.8Q178.4 87.2 178.1 88.5Q177.8 89.9 177.4 91.0L177.4 91.0L175.1 99Z M210.0 99L205.3 99L205.3 72.8L215.1 72.8Q218.1 72.8 220.2 73.9Q222.2 75.0 223.3 77.0Q224.4 78.9 224.4 81.4L224.4 81.4Q224.4 83.9 223.3 85.9Q222.2 87.8 220.1 88.9Q218.0 90.0 215.1 90.0L215.1 90.0L208.4 90.0L208.4 86.1L214.5 86.1Q216.3 86.1 217.4 85.5Q218.5 84.9 219.1 83.9Q219.6 82.8 219.6 81.4L219.6 81.4Q219.6 80.0 219.1 79.0Q218.5 77.9 217.4 77.3Q216.2 76.7 214.5 76.7L214.5 76.7L210.0 76.7L210.0 99ZM232.7 99L228.1 99L228.1 79.6L232.7 79.6L232.7 99ZM230.4 76.8L230.4 76.8Q229.3 76.8 228.5 76.1Q227.7 75.3 227.7 74.3L227.7 74.3Q227.7 73.2 228.5 72.5Q229.3 71.8 230.4 71.8L230.4 71.8Q231.5 71.8 232.3 72.5Q233.1 73.2 233.1 74.3L233.1 74.3Q233.1 75.3 232.3 76.1Q231.5 76.8 230.4 76.8ZM241.8 87.7L241.8 87.7L241.8 99L237.3 99L237.3 79.6L241.6 79.6L241.7 84.4L241.2 84.4Q242.1 81.9 243.7 80.6Q245.3 79.3 247.7 79.3L247.7 79.3Q249.7 79.3 251.2 80.2Q252.7 81.0 253.5 82.7Q254.4 84.3 254.4 86.7L254.4 86.7L254.4 99L249.8 99L249.8 87.4Q249.8 85.4 248.8 84.3Q247.8 83.2 246.0 83.2L246.0 83.2Q244.8 83.2 243.9 83.7Q242.9 84.2 242.4 85.2Q241.8 86.2 241.8 87.7Z "/></g><mask id="satori_om-id-1"><rect x="64" y="108" width="1072" height="524" fill="#fff"/></mask><mask id="satori_om-id-1-0"><rect x="413" y="278" width="374" height="145" fill="#fff"/></mask><g  ><path fill="#ffffff" d="M450.9 395.2L450.9 395.2Q441.5 395.2 434.3 391.9Q427.2 388.6 423.1 382.7Q419.1 376.9 418.9 369.3L418.9 369.3L434.5 369.3Q434.7 373.3 436.8 376.2Q439.0 379.1 442.6 380.7Q446.2 382.2 450.9 382.2L450.9 382.2Q455.7 382.2 459.3 380.6Q463.0 378.9 465.1 375.9Q467.1 372.9 467.1 368.9L467.1 368.9Q467.1 364.9 465.0 361.9Q462.9 358.8 458.9 357.1Q454.9 355.4 449.3 355.4L449.3 355.4L441.7 355.4L441.7 343.4L449.3 343.4Q454.0 343.4 457.5 341.8Q461.0 340.2 463.0 337.4Q464.9 334.5 464.9 330.7L464.9 330.7Q464.9 326.9 463.2 324.1Q461.5 321.3 458.3 319.7Q455.2 318.1 451.0 318.1L451.0 318.1Q446.8 318.1 443.3 319.6Q439.9 321.2 437.8 324.0Q435.8 326.8 435.7 330.7L435.7 330.7L420.7 330.7Q420.9 323.3 424.8 317.6Q428.8 311.9 435.6 308.7Q442.5 305.5 451.1 305.5L451.1 305.5Q459.8 305.5 466.3 308.7Q472.8 312.0 476.4 317.4Q480.0 322.9 480.0 329.7L480.0 329.7Q480.0 337.0 475.7 342.0Q471.3 347.0 464.2 348.6L464.2 348.6L464.2 349.2Q470.2 350.0 474.4 352.8Q478.7 355.7 480.9 360.0Q483.1 364.3 483.1 369.7L483.1 369.7Q483.1 377.1 478.9 382.8Q474.8 388.6 467.5 391.9Q460.3 395.2 450.9 395.2ZM524.7 395.2L524.7 395.2Q516.1 395.2 509.4 391.9Q502.6 388.7 498.6 382.9Q494.6 377.1 494.3 369.7L494.3 369.7L509.5 369.7Q509.7 373.5 511.8 376.4Q513.9 379.2 517.3 380.9Q520.6 382.5 524.7 382.5L524.7 382.5Q529.5 382.5 533.1 380.3Q536.8 378.2 538.9 374.4Q540.9 370.6 540.9 365.6L540.9 365.6Q540.9 360.5 538.8 356.6Q536.7 352.8 533.0 350.6Q529.4 348.4 524.5 348.4L524.5 348.4Q520.1 348.4 516.1 350.1Q512.2 351.8 510.1 354.7L510.1 354.7L495.9 352.9L500.0 306.7L551.3 306.7L551.3 319.8L513.2 319.8L510.9 343.0L511.3 343.0Q514.0 339.9 518.5 338.0Q523.0 336.2 528.3 336.2L528.3 336.2Q534.2 336.2 539.3 338.3Q544.4 340.4 548.1 344.4Q551.9 348.3 553.9 353.6Q556.0 358.9 556.0 365.2L556.0 365.2Q556.0 374.0 552.0 380.7Q548.1 387.4 541.0 391.3Q534.0 395.2 524.7 395.2ZM599.6 395.2L599.6 395.2Q590.1 395.2 583.0 391.9Q575.8 388.6 571.8 382.7Q567.7 376.9 567.6 369.3L567.6 369.3L583.2 369.3Q583.3 373.3 585.5 376.2Q587.6 379.1 591.2 380.7Q594.9 382.2 599.5 382.2L599.5 382.2Q604.3 382.2 608.0 380.6Q611.6 378.9 613.7 375.9Q615.8 372.9 615.8 368.9L615.8 368.9Q615.8 364.9 613.7 361.9Q611.5 358.8 607.5 357.1Q603.5 355.4 598.0 355.4L598.0 355.4L590.3 355.4L590.3 343.4L598.0 343.4Q602.6 343.4 606.1 341.8Q609.6 340.2 611.6 337.4Q613.6 334.5 613.6 330.7L613.6 330.7Q613.6 326.9 611.8 324.1Q610.1 321.3 607.0 319.7Q603.8 318.1 599.6 318.1L599.6 318.1Q595.4 318.1 592.0 319.6Q588.5 321.2 586.5 324.0Q584.4 326.8 584.3 330.7L584.3 330.7L569.4 330.7Q569.5 323.3 573.5 317.6Q577.5 311.9 584.3 308.7Q591.1 305.5 599.7 305.5L599.7 305.5Q608.4 305.5 614.9 308.7Q621.4 312.0 625.1 317.4Q628.7 322.9 628.7 329.7L628.7 329.7Q628.7 337.0 624.3 342.0Q620.0 347.0 612.8 348.6L612.8 348.6L612.8 349.2Q618.8 350.0 623.1 352.8Q627.3 355.7 629.5 360.0Q631.7 364.3 631.7 369.7L631.7 369.7Q631.7 377.1 627.6 382.8Q623.4 388.6 616.2 391.9Q608.9 395.2 599.6 395.2ZM673.4 395.2L673.4 395.2Q664.8 395.2 658.0 391.9Q651.2 388.7 647.3 382.9Q643.3 377.1 643.0 369.7L643.0 369.7L658.2 369.7Q658.4 373.5 660.5 376.4Q662.6 379.2 665.9 380.9Q669.3 382.5 673.4 382.5L673.4 382.5Q678.1 382.5 681.8 380.3Q685.5 378.2 687.5 374.4Q689.6 370.6 689.6 365.6L689.6 365.6Q689.6 360.5 687.5 356.6Q685.3 352.8 681.7 350.6Q678.0 348.4 673.2 348.4L673.2 348.4Q668.7 348.4 664.8 350.1Q660.9 351.8 658.7 354.7L658.7 354.7L644.6 352.9L648.7 306.7L700.0 306.7L700.0 319.8L661.8 319.8L659.5 343.0L659.9 343.0Q662.6 339.9 667.1 338.0Q671.6 336.2 677.0 336.2L677.0 336.2Q682.9 336.2 688.0 338.3Q693.0 340.4 696.8 344.4Q700.5 348.3 702.6 353.6Q704.7 358.9 704.7 365.2L704.7 365.2Q704.7 374.0 700.7 380.7Q696.7 387.4 689.7 391.3Q682.6 395.2 673.4 395.2ZM748.2 395.2L748.2 395.2Q738.8 395.2 731.6 391.9Q724.5 388.6 720.4 382.7Q716.4 376.9 716.2 369.3L716.2 369.3L731.8 369.3Q732.0 373.3 734.1 376.2Q736.3 379.1 739.9 380.7Q743.5 382.2 748.2 382.2L748.2 382.2Q753.0 382.2 756.6 380.6Q760.3 378.9 762.4 375.9Q764.4 372.9 764.4 368.9L764.4 368.9Q764.4 364.9 762.3 361.9Q760.2 358.8 756.2 357.1Q752.2 355.4 746.6 355.4L746.6 355.4L739.0 355.4L739.0 343.4L746.6 343.4Q751.3 343.4 754.8 341.8Q758.3 340.2 760.3 337.4Q762.2 334.5 762.2 330.7L762.2 330.7Q762.2 326.9 760.5 324.1Q758.8 321.3 755.6 319.7Q752.5 318.1 748.3 318.1L748.3 318.1Q744.1 318.1 740.6 319.6Q737.2 321.2 735.1 324.0Q733.1 326.8 733.0 330.7L733.0 330.7L718.0 330.7Q718.2 323.3 722.1 317.6Q726.1 311.9 733.0 308.7Q739.8 305.5 748.4 305.5L748.4 305.5Q757.1 305.5 763.6 308.7Q770.1 312.0 773.7 317.4Q777.3 322.9 777.3 329.7L777.3 329.7Q777.3 337.0 773.0 342.0Q768.6 347.0 761.5 348.6L761.5 348.6L761.5 349.2Q767.5 350.0 771.7 352.8Q776.0 355.7 778.2 360.0Q780.4 364.3 780.4 369.7L780.4 369.7Q780.4 377.1 776.2 382.8Q772.1 388.6 764.8 391.9Q757.6 395.2 748.2 395.2Z "/></g><mask id="satori_om-id-1-1"><rect x="457" y="423" width="286" height="39" fill="#fff"/></mask><g opacity="0.8"></g><g  ><path fill="#ffffff" d="M465.5 454.4L465.5 454.4Q463.5 454.4 462.1 453.8Q460.6 453.3 459.6 452.1Q458.7 451.0 458.4 449.5L458.4 449.5L461.7 448.9Q462.0 450.3 462.9 450.9Q463.9 451.6 465.5 451.6L465.5 451.6Q467.1 451.6 468.1 450.9Q469.0 450.3 469.0 449.3L469.0 449.3Q469.0 448.4 468.4 447.9Q467.8 447.4 466.6 447.1L466.6 447.1L463.7 446.5Q461.3 445.9 460.1 444.7Q458.9 443.5 458.9 441.6L458.9 441.6Q458.9 440.1 459.8 438.9Q460.6 437.8 462.1 437.1Q463.6 436.5 465.6 436.5L465.6 436.5Q467.5 436.5 468.8 437.1Q470.2 437.6 471.0 438.7Q471.9 439.7 472.2 441.1L472.2 441.1L469.0 441.6Q468.8 440.6 468.0 439.9Q467.1 439.2 465.6 439.2L465.6 439.2Q464.2 439.2 463.3 439.8Q462.3 440.5 462.3 441.5L462.3 441.5Q462.3 442.3 463.0 442.9Q463.6 443.4 465.0 443.7L465.0 443.7L467.8 444.3Q470.2 444.9 471.4 446.0Q472.5 447.2 472.5 449.0L472.5 449.0Q472.5 450.6 471.6 451.8Q470.7 453.0 469.1 453.7Q467.5 454.4 465.5 454.4ZM483.5 454.4L483.5 454.4Q481.0 454.4 479.1 453.3Q477.3 452.1 476.3 450.1Q475.3 448.1 475.3 445.5L475.3 445.5Q475.3 442.8 476.3 440.8Q477.3 438.8 479.1 437.6Q480.9 436.5 483.3 436.5L483.3 436.5Q484.8 436.5 486.2 437.0Q487.6 437.5 488.7 438.6Q489.8 439.7 490.4 441.3Q491.0 443.0 491.0 445.2L491.0 445.2L491.0 446.4L477.1 446.4L477.1 443.8L489.3 443.8L487.7 444.7Q487.7 443.1 487.2 441.9Q486.7 440.7 485.7 440.0Q484.7 439.3 483.3 439.3L483.3 439.3Q481.8 439.3 480.8 440Q479.8 440.7 479.2 441.8Q478.7 443.0 478.7 444.4L478.7 444.4L478.7 446.0Q478.7 447.8 479.3 449.0Q479.9 450.3 481.0 450.9Q482.1 451.5 483.6 451.5L483.6 451.5Q484.5 451.5 485.3 451.3Q486.1 451.0 486.7 450.4Q487.3 449.8 487.5 449.0L487.5 449.0L490.8 449.6Q490.4 451.0 489.4 452.1Q488.4 453.2 486.9 453.8Q485.4 454.4 483.5 454.4ZM501.9 454.4L501.9 454.4Q499.4 454.4 497.6 453.2Q495.8 452.1 494.8 450.1Q493.8 448.1 493.8 445.5L493.8 445.5Q493.8 442.8 494.8 440.8Q495.8 438.7 497.6 437.6Q499.4 436.5 501.9 436.5L501.9 436.5Q503.3 436.5 504.5 436.9Q505.7 437.2 506.6 437.9Q507.6 438.6 508.2 439.6Q508.9 440.6 509.2 441.8L509.2 441.8L505.9 442.5Q505.7 441.8 505.4 441.2Q505.0 440.6 504.5 440.2Q504.0 439.8 503.4 439.6Q502.7 439.4 501.9 439.4L501.9 439.4Q500.3 439.4 499.3 440.2Q498.3 441 497.8 442.4Q497.3 443.7 497.3 445.5L497.3 445.5Q497.3 447.1 497.8 448.5Q498.3 449.9 499.3 450.7Q500.3 451.5 501.9 451.5L501.9 451.5Q502.7 451.5 503.4 451.2Q504.0 451.0 504.6 450.6Q505.1 450.2 505.4 449.6Q505.8 449.0 505.9 448.3L505.9 448.3L509.2 448.9Q508.9 450.2 508.3 451.2Q507.6 452.2 506.6 452.9Q505.7 453.6 504.5 454.0Q503.3 454.4 501.9 454.4ZM520.0 454.4L520.0 454.4Q517.6 454.4 515.8 453.2Q514.0 452.1 512.9 450.1Q511.9 448.1 511.9 445.5L511.9 445.5Q511.9 442.8 512.9 440.8Q514.0 438.7 515.8 437.6Q517.6 436.5 520.0 436.5L520.0 436.5Q522.5 436.5 524.3 437.6Q526.1 438.7 527.1 440.8Q528.1 442.8 528.1 445.5L528.1 445.5Q528.1 448.1 527.1 450.1Q526.1 452.1 524.3 453.2Q522.5 454.4 520.0 454.4ZM520.0 451.5L520.0 451.5Q521.6 451.5 522.6 450.7Q523.7 449.9 524.2 448.5Q524.7 447.1 524.7 445.5L524.7 445.5Q524.7 443.8 524.2 442.4Q523.7 441.0 522.6 440.2Q521.6 439.4 520.0 439.4L520.0 439.4Q518.5 439.4 517.5 440.2Q516.4 441.0 515.9 442.4Q515.4 443.8 515.4 445.5L515.4 445.5Q515.4 447.1 515.9 448.5Q516.4 449.9 517.5 450.7Q518.5 451.5 520.0 451.5ZM535.2 443.8L535.2 443.8L535.2 454L531.8 454L531.8 436.8L535.0 436.8L535.0 441.0L534.6 441.0Q535.4 438.7 536.8 437.6Q538.3 436.5 540.3 436.5L540.3 436.5Q542.1 436.5 543.4 437.3Q544.8 438 545.5 439.5Q546.3 440.9 546.3 443.1L546.3 443.1L546.3 454L542.9 454L542.9 443.5Q542.9 441.6 541.9 440.5Q540.9 439.5 539.2 439.5L539.2 439.5Q538.1 439.5 537.1 440.0Q536.2 440.5 535.7 441.5Q535.2 442.4 535.2 443.8ZM557.2 454.3L557.2 454.3Q555.0 454.3 553.4 453.3Q551.8 452.2 550.8 450.2Q549.9 448.2 549.9 445.4L549.9 445.4Q549.9 442.6 550.8 440.6Q551.8 438.6 553.4 437.6Q555.1 436.5 557.2 436.5L557.2 436.5Q558.7 436.5 559.7 437.0Q560.7 437.5 561.3 438.2Q561.9 438.9 562.2 439.5L562.2 439.5L562.4 439.5L562.4 430.7L565.8 430.7L565.8 454L562.5 454L562.5 451.3L562.2 451.3Q561.9 452.0 561.3 452.7Q560.6 453.4 559.6 453.9Q558.7 454.3 557.2 454.3ZM557.9 451.4L557.9 451.4Q559.4 451.4 560.4 450.7Q561.4 449.9 561.9 448.5Q562.5 447.2 562.5 445.4L562.5 445.4Q562.5 443.6 561.9 442.2Q561.4 440.9 560.4 440.2Q559.4 439.4 557.9 439.4L557.9 439.4Q556.4 439.4 555.4 440.2Q554.4 440.9 553.9 442.3Q553.4 443.6 553.4 445.4L553.4 445.4Q553.4 447.1 553.9 448.5Q554.4 449.9 555.4 450.7Q556.5 451.4 557.9 451.4ZM576.4 454.4L576.4 454.4Q574.5 454.4 573.0 453.8Q571.6 453.3 570.6 452.1Q569.7 451.0 569.4 449.5L569.4 449.5L572.7 448.9Q573.0 450.3 573.9 450.9Q574.9 451.6 576.4 451.6L576.4 451.6Q578.1 451.6 579.0 450.9Q580.0 450.3 580.0 449.3L580.0 449.3Q580.0 448.4 579.4 447.9Q578.8 447.4 577.6 447.1L577.6 447.1L574.7 446.5Q572.3 445.9 571.1 444.7Q569.9 443.5 569.9 441.6L569.9 441.6Q569.9 440.1 570.7 438.9Q571.6 437.8 573.1 437.1Q574.6 436.5 576.5 436.5L576.5 436.5Q578.4 436.5 579.8 437.1Q581.2 437.6 582.0 438.7Q582.8 439.7 583.1 441.1L583.1 441.1L580.0 441.6Q579.8 440.6 579.0 439.9Q578.1 439.2 576.6 439.2L576.6 439.2Q575.2 439.2 574.2 439.8Q573.3 440.5 573.3 441.5L573.3 441.5Q573.3 442.3 574.0 442.9Q574.6 443.4 576.0 443.7L576.0 443.7L578.8 444.3Q581.2 444.9 582.4 446.0Q583.5 447.2 583.5 449.0L583.5 449.0Q583.5 450.6 582.6 451.8Q581.7 453.0 580.1 453.7Q578.5 454.4 576.4 454.4Z M598.8 454L595.4 454L595.4 436.8L598.7 436.8L598.7 439.5L598.9 439.5Q599.3 438.1 600.5 437.3Q601.6 436.5 603.2 436.5L603.2 436.5Q603.5 436.5 603.9 436.5Q604.3 436.6 604.6 436.6L604.6 436.6L604.6 439.8Q604.4 439.8 603.9 439.7Q603.4 439.7 602.8 439.7L602.8 439.7Q601.7 439.7 600.8 440.1Q599.9 440.6 599.3 441.5Q598.8 442.4 598.8 443.6L598.8 443.6L598.8 454ZM614.9 454.4L614.9 454.4Q612.3 454.4 610.5 453.3Q608.6 452.1 607.6 450.1Q606.6 448.1 606.6 445.5L606.6 445.5Q606.6 442.8 607.6 440.8Q608.6 438.8 610.4 437.6Q612.2 436.5 614.6 436.5L614.6 436.5Q616.2 436.5 617.6 437.0Q619.0 437.5 620.0 438.6Q621.1 439.7 621.8 441.3Q622.4 443.0 622.4 445.2L622.4 445.2L622.4 446.4L608.5 446.4L608.5 443.8L620.6 443.8L619.0 444.7Q619.0 443.1 618.5 441.9Q618.0 440.7 617.0 440.0Q616.0 439.3 614.6 439.3L614.6 439.3Q613.2 439.3 612.1 440Q611.1 440.7 610.6 441.8Q610.0 443.0 610.0 444.4L610.0 444.4L610.0 446.0Q610.0 447.8 610.6 449.0Q611.2 450.3 612.3 450.9Q613.4 451.5 614.9 451.5L614.9 451.5Q615.9 451.5 616.7 451.3Q617.5 451.0 618.0 450.4Q618.6 449.8 618.9 449.0L618.9 449.0L622.1 449.6Q621.7 451.0 620.7 452.1Q619.7 453.2 618.2 453.8Q616.7 454.4 614.9 454.4ZM629.3 454L625.9 454L625.9 436.8L629.2 436.8L629.3 440.7L629.0 440.7Q629.4 439.2 630.2 438.3Q630.9 437.4 632.0 436.9Q633.0 436.4 634.2 436.4L634.2 436.4Q636.1 436.4 637.3 437.6Q638.5 438.8 638.9 440.8L638.9 440.8L638.4 440.8Q638.8 439.4 639.6 438.4Q640.4 437.5 641.6 437.0Q642.8 436.4 644.2 436.4L644.2 436.4Q645.7 436.4 647.0 437.1Q648.2 437.8 649.0 439.1Q649.7 440.4 649.7 442.4L649.7 442.4L649.7 454L646.3 454L646.3 442.8Q646.3 441 645.3 440.2Q644.3 439.4 643.0 439.4L643.0 439.4Q641.9 439.4 641.1 439.9Q640.3 440.3 639.9 441.1Q639.5 442.0 639.5 443L639.5 443L639.5 454L636.1 454L636.1 442.5Q636.1 441.1 635.2 440.3Q634.3 439.4 632.9 439.4L632.9 439.4Q632.0 439.4 631.1 439.9Q630.3 440.3 629.8 441.2Q629.3 442.1 629.3 443.3L629.3 443.3L629.3 454ZM659.0 454.4L659.0 454.4Q657.4 454.4 656.0 453.8Q654.7 453.2 653.9 452.0Q653.2 450.8 653.2 449.1L653.2 449.1Q653.2 447.6 653.7 446.7Q654.3 445.8 655.3 445.2Q656.2 444.7 657.4 444.4Q658.6 444.1 659.8 444.0L659.8 444.0Q661.4 443.8 662.3 443.6Q663.3 443.5 663.7 443.3Q664.2 443.0 664.2 442.4L664.2 442.4L664.2 442.3Q664.2 441.3 663.8 440.7Q663.4 440 662.7 439.6Q661.9 439.3 660.8 439.3L660.8 439.3Q659.7 439.3 658.9 439.6Q658.1 440.0 657.6 440.5Q657.1 441.1 656.9 441.7L656.9 441.7L653.6 441.1Q654.1 439.5 655.2 438.5Q656.2 437.5 657.7 437.0Q659.1 436.5 660.8 436.5L660.8 436.5Q662.0 436.5 663.1 436.8Q664.3 437.1 665.4 437.7Q666.4 438.4 667.0 439.6Q667.6 440.7 667.6 442.5L667.6 442.5L667.6 454L664.3 454L664.3 451.6L664.1 451.6Q663.8 452.3 663.1 452.9Q662.5 453.5 661.5 454.0Q660.4 454.4 659.0 454.4ZM659.8 451.6L659.8 451.6Q661.2 451.6 662.2 451.1Q663.2 450.5 663.7 449.6Q664.2 448.8 664.2 447.7L664.2 447.7L664.2 445.6Q664.0 445.7 663.5 445.9Q663.0 446.0 662.4 446.1Q661.7 446.3 661.1 446.3Q660.5 446.4 660.0 446.5L660.0 446.5Q659.1 446.6 658.3 446.9Q657.5 447.2 657.0 447.7Q656.5 448.3 656.5 449.2L656.5 449.2Q656.5 450.0 656.9 450.5Q657.3 451.1 658.1 451.3Q658.8 451.6 659.8 451.6ZM675.4 454L672.0 454L672.0 436.8L675.4 436.8L675.4 454ZM673.7 434.0L673.7 434.0Q672.8 434.0 672.2 433.4Q671.6 432.8 671.6 432L671.6 432Q671.6 431.1 672.2 430.6Q672.8 430.0 673.7 430.0L673.7 430.0Q674.6 430.0 675.2 430.6Q675.8 431.1 675.8 432L675.8 432Q675.8 432.8 675.2 433.4Q674.6 434.0 673.7 434.0ZM683.2 443.8L683.2 443.8L683.2 454L679.8 454L679.8 436.8L683.1 436.8L683.1 441.0L682.7 441.0Q683.4 438.7 684.9 437.6Q686.3 436.5 688.4 436.5L688.4 436.5Q690.2 436.5 691.5 437.3Q692.8 438 693.6 439.5Q694.3 440.9 694.3 443.1L694.3 443.1L694.3 454L690.9 454L690.9 443.5Q690.9 441.6 690.0 440.5Q689.0 439.5 687.3 439.5L687.3 439.5Q686.1 439.5 685.2 440.0Q684.3 440.5 683.8 441.5Q683.2 442.4 683.2 443.8ZM702.2 454L698.8 454L698.8 436.8L702.2 436.8L702.2 454ZM700.5 434.0L700.5 434.0Q699.6 434.0 699.0 433.4Q698.3 432.8 698.3 432L698.3 432Q698.3 431.1 699.0 430.6Q699.6 430.0 700.5 430.0L700.5 430.0Q701.4 430.0 702 430.6Q702.6 431.1 702.6 432L702.6 432Q702.6 432.8 702 433.4Q701.4 434.0 700.5 434.0ZM710.0 443.8L710.0 443.8L710.0 454L706.6 454L706.6 436.8L709.9 436.8L709.9 441.0L709.5 441.0Q710.2 438.7 711.7 437.6Q713.1 436.5 715.2 436.5L715.2 436.5Q717.0 436.5 718.3 437.3Q719.6 438 720.4 439.5Q721.1 440.9 721.1 443.1L721.1 443.1L721.1 454L717.7 454L717.7 443.5Q717.7 441.6 716.7 440.5Q715.8 439.5 714.1 439.5L714.1 439.5Q712.9 439.5 712.0 440.0Q711.1 440.5 710.5 441.5Q710.0 442.4 710.0 443.8ZM732.8 460.9L732.8 460.9Q730.8 460.9 729.3 460.3Q727.8 459.8 726.9 458.9Q725.9 458.0 725.5 456.8L725.5 456.8L728.4 455.7Q728.7 456.3 729.3 456.8Q729.8 457.4 730.7 457.8Q731.5 458.1 732.8 458.1L732.8 458.1Q734.8 458.1 736.0 457.1Q737.3 456.2 737.3 454.2L737.3 454.2L737.3 451.0L737.0 451.0Q736.7 451.6 736.1 452.3Q735.5 452.9 734.5 453.4Q733.5 453.8 732 453.8L732 453.8Q729.9 453.8 728.3 452.8Q726.6 451.8 725.7 449.9Q724.8 448.0 724.8 445.3L724.8 445.3Q724.8 442.6 725.7 440.6Q726.6 438.6 728.3 437.6Q729.9 436.5 732.0 436.5L732.0 436.5Q733.5 436.5 734.5 437.0Q735.5 437.5 736.1 438.2Q736.8 438.9 737.1 439.5L737.1 439.5L737.3 439.5L737.3 436.8L740.6 436.8L740.6 454.2Q740.6 456.5 739.6 458.0Q738.6 459.5 736.8 460.2Q735.0 460.9 732.8 460.9ZM732.8 451.0L732.8 451.0Q734.2 451.0 735.3 450.3Q736.3 449.6 736.8 448.3Q737.3 447.0 737.3 445.3L737.3 445.3Q737.3 443.5 736.8 442.2Q736.3 440.9 735.3 440.1Q734.2 439.4 732.8 439.4L732.8 439.4Q731.3 439.4 730.3 440.2Q729.3 440.9 728.7 442.2Q728.2 443.6 728.2 445.3L728.2 445.3Q728.2 447.0 728.8 448.3Q729.3 449.6 730.3 450.3Q731.3 451.0 732.8 451.0Z " opacity="0.8"/></g><mask id="satori_om-id-2"><rect x="64" y="632" width="1072" height="82" fill="#fff"/></mask><mask id="satori_om-id-2-0"><rect x="486" y="632" width="48" height="82" fill="#fff"/></mask><mask id="satori_om-id-2-0-0"><rect x="494" y="632" width="32" height="58" fill="#fff"/></mask><g  ><path fill="#ffffff" d="M509.7 679.5L509.7 679.5Q505.5 679.5 502.5 677.4Q499.5 675.2 497.9 671.2Q496.3 667.2 496.3 661.6L496.3 661.6Q496.3 655.9 497.9 651.9Q499.5 647.9 502.5 645.7Q505.5 643.6 509.7 643.6L509.7 643.6Q513.9 643.6 517.0 645.7Q520.0 647.9 521.6 651.9Q523.2 655.9 523.2 661.6L523.2 661.6Q523.2 667.2 521.6 671.2Q520.0 675.2 517.0 677.4Q514.0 679.5 509.7 679.5ZM509.7 674.3L509.7 674.3Q512.0 674.3 513.7 672.8Q515.3 671.3 516.1 668.4Q517.0 665.6 517.0 661.6L517.0 661.6Q517.0 657.5 516.1 654.7Q515.3 651.8 513.7 650.3Q512.0 648.8 509.7 648.8L509.7 648.8Q507.4 648.8 505.8 650.3Q504.2 651.8 503.3 654.7Q502.5 657.5 502.5 661.6L502.5 661.6Q502.5 665.6 503.3 668.4Q504.1 671.3 505.8 672.8Q507.4 674.3 509.7 674.3Z "/></g><mask id="satori_om-id-2-0-1"><rect x="486" y="690" width="48" height="24" fill="#fff"/></mask><g opacity="0.8"></g><g  ><path fill="#ffffff" d="M492.3 709L492.3 709L488.7 709L488.7 707.1L492.2 707.1Q493.8 707.1 494.9 706.4Q496.0 705.8 496.6 704.6Q497.1 703.4 497.1 701.7L497.1 701.7Q497.1 700.0 496.6 698.8Q496.0 697.6 494.9 697.0Q493.9 696.4 492.3 696.4L492.3 696.4L488.6 696.4L488.6 694.4L492.4 694.4Q494.6 694.4 496.1 695.3Q497.6 696.2 498.5 697.8Q499.3 699.4 499.3 701.7L499.3 701.7Q499.3 704.0 498.5 705.6Q497.6 707.2 496.1 708.1Q494.5 709 492.3 709ZM487.5 694.4L489.8 694.4L489.8 709L487.5 709L487.5 694.4ZM504.8 709.2L504.8 709.2Q503.7 709.2 502.9 708.8Q502.1 708.5 501.6 707.7Q501.1 707.0 501.1 705.9L501.1 705.9Q501.1 705.0 501.5 704.4Q501.8 703.8 502.4 703.5Q503.0 703.2 503.7 703.0Q504.5 702.8 505.3 702.7L505.3 702.7Q506.2 702.6 506.8 702.5Q507.4 702.4 507.7 702.3Q508.0 702.1 508.0 701.7L508.0 701.7L508.0 701.7Q508.0 701.1 507.7 700.7Q507.5 700.3 507.0 700.0Q506.6 699.8 505.9 699.8L505.9 699.8Q505.2 699.8 504.7 700.0Q504.2 700.2 503.9 700.6Q503.5 700.9 503.4 701.3L503.4 701.3L501.4 700.9Q501.7 699.9 502.4 699.3Q503.0 698.7 503.9 698.4Q504.8 698.1 505.9 698.1L505.9 698.1Q506.6 698.1 507.3 698.2Q508.1 698.4 508.7 698.8Q509.3 699.3 509.7 700.0Q510.1 700.7 510.1 701.8L510.1 701.8L510.1 709L508.0 709L508.0 707.5L508.0 707.5Q507.7 707.9 507.3 708.3Q506.9 708.7 506.3 709.0Q505.6 709.2 504.8 709.2ZM505.2 707.5L505.2 707.5Q506.1 707.5 506.7 707.2Q507.3 706.8 507.7 706.3Q508.0 705.7 508.0 705.1L508.0 705.1L508.0 703.7Q507.9 703.8 507.6 703.9Q507.3 704.0 506.9 704.1Q506.5 704.2 506.1 704.2Q505.7 704.3 505.4 704.3L505.4 704.3Q504.8 704.4 504.3 704.6Q503.8 704.7 503.5 705.1Q503.2 705.4 503.2 706.0L503.2 706.0Q503.2 706.5 503.5 706.8Q503.7 707.2 504.2 707.3Q504.6 707.5 505.2 707.5ZM512.8 713.0L512.8 713.0L513.2 711.2L513.6 711.3Q514.1 711.4 514.5 711.3Q514.9 711.2 515.2 710.9Q515.5 710.6 515.7 709.9L515.7 709.9L516 709.0L511.9 698.2L514.2 698.2L516.3 704.3Q516.7 705.3 516.9 706.3Q517.2 707.2 517.4 708.2L517.4 708.2L516.8 708.2Q517.1 707.2 517.3 706.2Q517.6 705.3 517.9 704.3L517.9 704.3L520.1 698.2L522.4 698.2L517.6 710.6Q517.3 711.4 516.8 712.0Q516.4 712.6 515.7 712.9Q515.1 713.1 514.2 713.1L514.2 713.1Q513.8 713.1 513.4 713.1Q513.0 713.0 512.8 713.0ZM528.1 709.2L528.1 709.2Q526.9 709.2 525.9 708.9Q525.0 708.5 524.4 707.8Q523.8 707.2 523.7 706.2L523.7 706.2L525.7 705.8Q525.9 706.7 526.5 707.1Q527.1 707.5 528.1 707.5L528.1 707.5Q529.1 707.5 529.7 707.1Q530.3 706.7 530.3 706.1L530.3 706.1Q530.3 705.5 529.9 705.2Q529.5 704.8 528.8 704.7L528.8 704.7L527.0 704.3Q525.5 703.9 524.7 703.2Q524.0 702.4 524.0 701.3L524.0 701.3Q524.0 700.3 524.5 699.6Q525.0 698.9 526.0 698.5Q526.9 698.1 528.1 698.1L528.1 698.1Q529.3 698.1 530.2 698.4Q531.0 698.8 531.5 699.4Q532.1 700.1 532.3 700.9L532.3 700.9L530.3 701.3Q530.2 700.6 529.6 700.2Q529.1 699.7 528.2 699.7L528.2 699.7Q527.3 699.7 526.7 700.1Q526.1 700.5 526.1 701.2L526.1 701.2Q526.1 701.7 526.5 702.0Q526.9 702.4 527.8 702.6L527.8 702.6L529.5 703.0Q531.0 703.3 531.8 704.0Q532.5 704.7 532.5 705.9L532.5 705.9Q532.5 706.9 531.9 707.6Q531.4 708.4 530.4 708.8Q529.4 709.2 528.1 709.2Z " opacity="0.8"/></g><mask id="satori_om-id-2-1"><rect x="558" y="632" width="57" height="82" fill="#fff"/></mask><mask id="satori_om-id-2-1-0"><rect x="571" y="632" width="31" height="58" fill="#fff"/></mask><g  ><path fill="#ffffff" d="M585.4 679.5L585.4 679.5Q582.2 679.5 579.6 678.2Q577.1 676.9 575.5 674.7Q573.9 672.5 573.6 669.6L573.6 669.6L579.7 669.6Q580.1 671.7 581.6 672.9Q583.1 674.2 585.4 674.2L585.4 674.2Q587.9 674.2 589.6 672.7Q591.3 671.3 592.2 668.6Q593.1 666.0 593.1 662.3L593.1 662.3L592.9 662.3Q592.0 663.8 590.7 664.8Q589.4 665.9 587.8 666.4Q586.1 667.0 584.2 667.0L584.2 667.0Q581.1 667.0 578.6 665.5Q576.1 664.0 574.7 661.4Q573.3 658.8 573.3 655.5L573.3 655.5Q573.3 652.1 574.8 649.4Q576.4 646.6 579.3 645.1Q582.1 643.5 585.9 643.6L585.9 643.6Q588.5 643.6 590.9 644.5Q593.2 645.4 595.1 647.4Q596.9 649.4 598.0 652.6Q599.1 655.9 599.1 660.5L599.1 660.5Q599.1 665.0 598.2 668.5Q597.2 672.0 595.5 674.5Q593.7 676.9 591.2 678.2Q588.6 679.5 585.4 679.5ZM585.8 662.1L585.8 662.1Q587.1 662.1 588.4 661.6Q589.6 661.1 590.5 660.2Q591.3 659.2 591.9 658Q592.4 656.8 592.4 655.4L592.4 655.4Q592.4 653.5 591.5 652.0Q590.7 650.5 589.2 649.6Q587.7 648.7 585.9 648.7L585.9 648.7Q584.0 648.7 582.5 649.6Q581.0 650.5 580.2 652Q579.3 653.5 579.3 655.4L579.3 655.4Q579.3 657.3 580.2 658.8Q581.0 660.4 582.4 661.3Q583.9 662.1 585.8 662.1Z "/></g><mask id="satori_om-id-2-1-1"><rect x="558" y="690" width="57" height="24" fill="#fff"/></mask><g opacity="0.8"></g><g  ><path fill="#ffffff" d="M561.8 709L559.5 709L559.5 694.4L561.8 694.4L561.8 700.6L569.0 700.6L569.0 694.4L571.2 694.4L571.2 709L569.0 709L569.0 702.5L561.8 702.5L561.8 709ZM578.7 709.2L578.7 709.2Q577.2 709.2 576.0 708.5Q574.9 707.8 574.2 706.6Q573.6 705.3 573.6 703.7L573.6 703.7Q573.6 702.0 574.2 700.7Q574.9 699.5 576.0 698.8Q577.2 698.1 578.7 698.1L578.7 698.1Q580.2 698.1 581.3 698.8Q582.5 699.5 583.1 700.7Q583.7 702.0 583.7 703.7L583.7 703.7Q583.7 705.3 583.1 706.6Q582.5 707.8 581.3 708.5Q580.2 709.2 578.7 709.2ZM578.7 707.4L578.7 707.4Q579.6 707.4 580.3 706.9Q580.9 706.4 581.3 705.6Q581.6 704.7 581.6 703.7L581.6 703.7Q581.6 702.6 581.3 701.7Q580.9 700.9 580.3 700.4Q579.6 699.9 578.7 699.9L578.7 699.9Q577.7 699.9 577.1 700.4Q576.4 700.9 576.1 701.7Q575.8 702.6 575.8 703.7L575.8 703.7Q575.8 704.7 576.1 705.6Q576.4 706.4 577.1 706.9Q577.7 707.4 578.7 707.4ZM589.7 709.1L589.7 709.1Q588.6 709.1 587.8 708.7Q586.9 708.2 586.5 707.3Q586.0 706.4 586.0 705.0L586.0 705.0L586.0 698.2L588.1 698.2L588.1 704.8Q588.1 706.0 588.7 706.6Q589.4 707.3 590.4 707.3L590.4 707.3Q591.2 707.3 591.7 707.0Q592.3 706.7 592.6 706.1Q593.0 705.4 593.0 704.6L593.0 704.6L593.0 698.2L595.1 698.2L595.1 709L593.0 709L593.0 706.4L593.3 706.4Q592.8 707.8 591.9 708.5Q591.0 709.1 589.7 709.1ZM600.0 709L597.8 709L597.8 698.2L599.9 698.2L599.9 699.9L600.0 699.9Q600.3 699.1 601.0 698.6Q601.7 698.1 602.7 698.1L602.7 698.1Q602.9 698.1 603.2 698.1Q603.4 698.1 603.6 698.1L603.6 698.1L603.6 700.1Q603.5 700.1 603.1 700.1Q602.8 700.0 602.5 700.0L602.5 700.0Q601.8 700.0 601.2 700.3Q600.6 700.6 600.3 701.2Q600.0 701.7 600.0 702.5L600.0 702.5L600.0 709ZM609.3 709.2L609.3 709.2Q608.1 709.2 607.2 708.9Q606.2 708.5 605.6 707.8Q605.1 707.2 604.9 706.2L604.9 706.2L606.9 705.8Q607.1 706.7 607.7 707.1Q608.3 707.5 609.3 707.5L609.3 707.5Q610.3 707.5 610.9 707.1Q611.5 706.7 611.5 706.1L611.5 706.1Q611.5 705.5 611.1 705.2Q610.7 704.8 610.0 704.7L610.0 704.7L608.2 704.3Q606.7 703.9 605.9 703.2Q605.2 702.4 605.2 701.3L605.2 701.3Q605.2 700.3 605.7 699.6Q606.2 698.9 607.2 698.5Q608.1 698.1 609.3 698.1L609.3 698.1Q610.5 698.1 611.4 698.4Q612.2 698.8 612.8 699.4Q613.3 700.1 613.5 700.9L613.5 700.9L611.5 701.3Q611.4 700.6 610.8 700.2Q610.3 699.7 609.4 699.7L609.4 699.7Q608.5 699.7 607.9 700.1Q607.3 700.5 607.3 701.2L607.3 701.2Q607.3 701.7 607.7 702.0Q608.1 702.4 609.0 702.6L609.0 702.6L610.7 703.0Q612.2 703.3 613.0 704.0Q613.7 704.7 613.7 705.9L613.7 705.9Q613.7 706.9 613.1 707.6Q612.6 708.4 611.6 708.8Q610.6 709.2 609.3 709.2Z " opacity="0.8"/></g><mask id="satori_om-id-2-2"><rect x="639" y="632" width="76" height="82" fill="#fff"/></mask><mask id="satori_om-id-2-2-0"><rect x="646" y="632" width="63" height="58" fill="#fff"/></mask><g  ><path fill="#ffffff" d="M675.6 672.2L648.3 672.2L648.3 667.3L663.3 644.1L667.4 644.1L667.4 651.0L664.9 651.0L654.6 666.9L654.6 667.1L675.6 667.1L675.6 672.2ZM671.1 679L665.1 679L665.1 670.7L665.1 668.5L665.1 644.1L671.1 644.1L671.1 679ZM692.2 679.5L692.2 679.5Q688.9 679.5 686.3 678.2Q683.8 676.9 682.2 674.7Q680.7 672.5 680.3 669.6L680.3 669.6L686.4 669.6Q686.9 671.7 688.4 672.9Q689.8 674.2 692.2 674.2L692.2 674.2Q694.7 674.2 696.4 672.7Q698.1 671.3 698.9 668.6Q699.8 666.0 699.8 662.3L699.8 662.3L699.6 662.3Q698.8 663.8 697.5 664.8Q696.2 665.9 694.5 666.4Q692.9 667.0 691.0 667.0L691.0 667.0Q687.9 667.0 685.4 665.5Q682.9 664.0 681.4 661.4Q680.0 658.8 680.0 655.5L680.0 655.5Q680.0 652.1 681.6 649.4Q683.2 646.6 686.0 645.1Q688.8 643.5 692.6 643.6L692.6 643.6Q695.2 643.6 697.6 644.5Q700.0 645.4 701.8 647.4Q703.7 649.4 704.8 652.6Q705.8 655.9 705.8 660.5L705.8 660.5Q705.8 665.0 704.9 668.5Q704.0 672.0 702.2 674.5Q700.4 676.9 697.9 678.2Q695.4 679.5 692.2 679.5ZM692.5 662.1L692.5 662.1Q693.9 662.1 695.1 661.6Q696.3 661.1 697.2 660.2Q698.1 659.2 698.6 658Q699.1 656.8 699.1 655.4L699.1 655.4Q699.1 653.5 698.3 652.0Q697.4 650.5 695.9 649.6Q694.5 648.7 692.6 648.7L692.6 648.7Q690.7 648.7 689.3 649.6Q687.8 650.5 686.9 652Q686.1 653.5 686.1 655.4L686.1 655.4Q686.1 657.3 686.9 658.8Q687.7 660.4 689.2 661.3Q690.6 662.1 692.5 662.1Z "/></g><mask id="satori_om-id-2-2-1"><rect x="639" y="690" width="76" height="24" fill="#fff"/></mask><g opacity="0.8"></g><g  ><path fill="#ffffff" d="M642.7 709L640.5 709L640.5 694.4L643.8 694.4L647.0 702.8Q647.1 703.2 647.3 703.8Q647.5 704.3 647.6 705.0Q647.8 705.6 648.0 706.2Q648.2 706.8 648.3 707.3L648.3 707.3L647.8 707.3Q647.9 706.9 648.1 706.3Q648.3 705.6 648.5 705.0Q648.6 704.4 648.8 703.8Q649.0 703.2 649.1 702.8L649.1 702.8L652.3 694.4L655.5 694.4L655.5 709L653.3 709L653.3 701.1Q653.3 700.7 653.3 700.1Q653.3 699.5 653.4 698.8Q653.4 698.1 653.4 697.4Q653.4 696.7 653.4 696.1L653.4 696.1L653.6 696.1Q653.4 696.8 653.2 697.5Q652.9 698.2 652.7 698.9Q652.5 699.6 652.3 700.2Q652.1 700.8 652.0 701.1L652.0 701.1L649.0 709L647.1 709L644.1 701.1Q643.9 700.8 643.7 700.2Q643.5 699.7 643.3 699.0Q643.1 698.3 642.9 697.5Q642.6 696.8 642.4 696.1L642.4 696.1L642.6 696.1Q642.6 696.7 642.6 697.3Q642.7 698.0 642.7 698.7Q642.7 699.4 642.7 700.0Q642.7 700.7 642.7 701.1L642.7 701.1L642.7 709ZM660.6 709L658.4 709L658.4 698.2L660.6 698.2L660.6 709ZM659.5 696.5L659.5 696.5Q659.0 696.5 658.6 696.2Q658.2 695.8 658.2 695.3L658.2 695.3Q658.2 694.7 658.6 694.3Q659.0 694.0 659.5 694.0L659.5 694.0Q660.1 694.0 660.5 694.3Q660.9 694.7 660.9 695.3L660.9 695.3Q660.9 695.8 660.5 696.2Q660.1 696.5 659.5 696.5ZM665.5 702.7L665.5 702.7L665.5 709L663.3 709L663.3 698.2L665.4 698.2L665.4 700.9L665.1 700.9Q665.6 699.4 666.5 698.7Q667.4 698.1 668.7 698.1L668.7 698.1Q669.8 698.1 670.6 698.5Q671.5 699 671.9 699.9Q672.4 700.8 672.4 702.2L672.4 702.2L672.4 709L670.3 709L670.3 702.4Q670.3 701.2 669.7 700.6Q669.1 699.9 668.0 699.9L668.0 699.9Q667.3 699.9 666.7 700.2Q666.1 700.6 665.8 701.2Q665.5 701.8 665.5 702.7ZM678.9 709.1L678.9 709.1Q677.8 709.1 677.0 708.7Q676.1 708.2 675.7 707.3Q675.2 706.4 675.2 705.0L675.2 705.0L675.2 698.2L677.3 698.2L677.3 704.8Q677.3 706.0 677.9 706.6Q678.5 707.3 679.6 707.3L679.6 707.3Q680.3 707.3 680.9 707.0Q681.5 706.7 681.8 706.1Q682.1 705.4 682.1 704.6L682.1 704.6L682.1 698.2L684.3 698.2L684.3 709L682.2 709L682.2 706.4L682.5 706.4Q682.0 707.8 681.1 708.5Q680.2 709.1 678.9 709.1ZM685.8 698.2L691.8 698.2L691.8 700.0L685.8 700.0L685.8 698.2ZM687.5 706.3L687.5 695.6L689.6 695.6L689.6 706.1Q689.6 706.7 689.9 707.0Q690.1 707.3 690.8 707.3L690.8 707.3Q691.0 707.3 691.2 707.3Q691.5 707.3 691.7 707.2L691.7 707.2L692.0 708.9Q691.7 709.0 691.3 709.1Q690.9 709.1 690.5 709.1L690.5 709.1Q689.1 709.1 688.3 708.4Q687.5 707.7 687.5 706.3L687.5 706.3ZM698.4 709.2L698.4 709.2Q696.8 709.2 695.7 708.5Q694.5 707.8 693.9 706.6Q693.3 705.3 693.3 703.7L693.3 703.7Q693.3 702.0 693.9 700.8Q694.5 699.5 695.6 698.8Q696.8 698.1 698.3 698.1L698.3 698.1Q699.2 698.1 700.1 698.4Q701.0 698.7 701.7 699.4Q702.3 700.0 702.7 701.1Q703.1 702.1 703.1 703.5L703.1 703.5L703.1 704.2L694.4 704.2L694.4 702.6L702.0 702.6L701.0 703.2Q701.0 702.2 700.7 701.4Q700.4 700.7 699.8 700.2Q699.2 699.8 698.3 699.8L698.3 699.8Q697.4 699.8 696.7 700.3Q696.1 700.7 695.7 701.4Q695.4 702.1 695.4 703.0L695.4 703.0L695.4 704.0Q695.4 705.1 695.8 705.9Q696.2 706.7 696.8 707.1Q697.5 707.5 698.5 707.5L698.5 707.5Q699.1 707.5 699.6 707.3Q700.1 707.1 700.4 706.8Q700.8 706.4 700.9 705.9L700.9 705.9L703.0 706.3Q702.7 707.1 702.1 707.8Q701.5 708.5 700.5 708.9Q699.6 709.2 698.4 709.2ZM709.2 709.2L709.2 709.2Q708.1 709.2 707.1 708.9Q706.2 708.5 705.6 707.8Q705.0 707.2 704.8 706.2L704.8 706.2L706.9 705.8Q707.1 706.7 707.7 707.1Q708.3 707.5 709.2 707.5L709.2 707.5Q710.3 707.5 710.9 707.1Q711.5 706.7 711.5 706.1L711.5 706.1Q711.5 705.5 711.1 705.2Q710.7 704.8 710.0 704.7L710.0 704.7L708.1 704.3Q706.6 703.9 705.9 703.2Q705.2 702.4 705.2 701.3L705.2 701.3Q705.2 700.3 705.7 699.6Q706.2 698.9 707.2 698.5Q708.1 698.1 709.3 698.1L709.3 698.1Q710.5 698.1 711.3 698.4Q712.2 698.8 712.7 699.4Q713.2 700.1 713.4 700.9L713.4 700.9L711.5 701.3Q711.3 700.6 710.8 700.2Q710.3 699.7 709.3 699.7L709.3 699.7Q708.5 699.7 707.9 700.1Q707.3 700.5 707.3 701.2L707.3 701.2Q707.3 701.7 707.7 702.0Q708.1 702.4 708.9 702.6L708.9 702.6L710.7 703.0Q712.2 703.3 712.9 704.0Q713.7 704.7 713.7 705.9L713.7 705.9Q713.7 706.9 713.1 707.6Q712.5 708.4 711.5 708.8Q710.5 709.2 709.2 709.2Z " opacity="0.8"/></g><mask id="satori_om-id-3"><rect x="64" y="714" width="1072" height="22" fill="#fff"/></mask><g opacity="0.7"></g><mask id="satori_om-id-3-0"><rect x="64" y="714" width="182" height="22" fill="#fff"/></mask><g opacity="0.7"></g><g  ><path fill="#ffffff" d="M67.4 731L65.4 731L65.4 717.9L70.2 717.9Q71.6 717.9 72.7 718.4Q73.7 718.9 74.2 719.9Q74.7 720.8 74.7 722.0L74.7 722.0Q74.7 723.2 74.2 724.1Q73.6 725.0 72.6 725.6Q71.6 726.1 70.1 726.1L70.1 726.1L66.5 726.1L66.5 724.3L70.0 724.3Q70.9 724.3 71.5 724.1Q72.1 723.8 72.4 723.3Q72.7 722.7 72.7 722.0L72.7 722.0Q72.7 721.3 72.4 720.7Q72.1 720.2 71.5 719.9Q70.9 719.6 70.0 719.6L70.0 719.6L67.4 719.6L67.4 731ZM75.1 731L72.9 731L69.7 725.1L71.9 725.1L75.1 731ZM81.1 731.2L81.1 731.2Q79.6 731.2 78.6 730.6Q77.5 730.0 77.0 728.8Q76.4 727.7 76.4 726.2L76.4 726.2Q76.4 724.7 77.0 723.6Q77.5 722.4 78.5 721.8Q79.5 721.2 80.9 721.2L80.9 721.2Q81.8 721.2 82.6 721.4Q83.3 721.7 84.0 722.3Q84.6 722.9 84.9 723.9Q85.3 724.8 85.3 726.1L85.3 726.1L85.3 726.7L77.4 726.7L77.4 725.3L84.3 725.3L83.4 725.7Q83.4 724.9 83.1 724.2Q82.8 723.5 82.3 723.1Q81.7 722.7 80.9 722.7L80.9 722.7Q80.1 722.7 79.5 723.1Q78.9 723.5 78.6 724.2Q78.3 724.8 78.3 725.6L78.3 725.6L78.3 726.5Q78.3 727.5 78.7 728.2Q79.0 728.9 79.6 729.3Q80.2 729.6 81.1 729.6L81.1 729.6Q81.6 729.6 82.1 729.5Q82.5 729.3 82.8 729.0Q83.2 728.7 83.3 728.2L83.3 728.2L85.1 728.5Q84.9 729.3 84.3 729.9Q83.8 730.5 82.9 730.9Q82.1 731.2 81.1 731.2ZM90.0 731.2L90.0 731.2Q89.1 731.2 88.4 730.9Q87.6 730.5 87.2 729.9Q86.7 729.2 86.7 728.2L86.7 728.2Q86.7 727.4 87.1 726.9Q87.4 726.4 87.9 726.1Q88.5 725.7 89.1 725.6Q89.8 725.4 90.5 725.3L90.5 725.3Q91.4 725.2 91.9 725.2Q92.4 725.1 92.7 725.0Q92.9 724.8 92.9 724.5L92.9 724.5L92.9 724.4Q92.9 723.9 92.7 723.5Q92.5 723.1 92.1 722.9Q91.7 722.7 91.1 722.7L91.1 722.7Q90.4 722.7 90.0 722.9Q89.5 723.1 89.2 723.4Q88.9 723.7 88.8 724.1L88.8 724.1L87.0 723.7Q87.3 722.8 87.9 722.3Q88.5 721.7 89.3 721.4Q90.1 721.2 91.0 721.2L91.0 721.2Q91.7 721.2 92.4 721.3Q93.0 721.5 93.6 721.9Q94.2 722.2 94.5 722.9Q94.8 723.5 94.8 724.5L94.8 724.5L94.8 731L93.0 731L93.0 729.7L92.9 729.7Q92.7 730.0 92.3 730.4Q92.0 730.7 91.4 731.0Q90.8 731.2 90.0 731.2ZM90.5 729.7L90.5 729.7Q91.3 729.7 91.8 729.4Q92.4 729.0 92.7 728.5Q92.9 728.0 92.9 727.5L92.9 727.5L92.9 726.3Q92.8 726.4 92.6 726.4Q92.3 726.5 91.9 726.6Q91.6 726.6 91.2 726.7Q90.9 726.7 90.6 726.8L90.6 726.8Q90.1 726.8 89.6 727.0Q89.2 727.2 88.9 727.5Q88.6 727.8 88.6 728.3L88.6 728.3Q88.6 728.7 88.9 729.0Q89.1 729.3 89.5 729.5Q89.9 729.7 90.5 729.7ZM97.3 717.9L99.3 717.9L99.3 731L97.3 731L97.3 717.9ZM101.7 724.7L107.5 724.7L107.5 726.4L101.7 726.4L101.7 724.7ZM108.9 721.3L114.2 721.3L114.2 722.9L108.9 722.9L108.9 721.3ZM110.3 728.6L110.3 718.9L112.3 718.9L112.3 728.4Q112.3 729.0 112.5 729.2Q112.7 729.5 113.3 729.5L113.3 729.5Q113.5 729.5 113.7 729.5Q114.0 729.4 114.2 729.4L114.2 729.4L114.4 730.9Q114.1 731.0 113.8 731.1Q113.4 731.1 113.1 731.1L113.1 731.1Q111.8 731.1 111.1 730.4Q110.3 729.8 110.3 728.6L110.3 728.6ZM117.9 731L116.0 731L116.0 721.3L117.9 721.3L117.9 731ZM117.0 719.8L117.0 719.8Q116.5 719.8 116.1 719.4Q115.8 719.1 115.8 718.6L115.8 718.6Q115.8 718.1 116.1 717.8Q116.5 717.5 117.0 717.5L117.0 717.5Q117.5 717.5 117.8 717.8Q118.2 718.1 118.2 718.6L118.2 718.6Q118.2 719.1 117.8 719.4Q117.5 719.8 117.0 719.8ZM122.4 731L120.4 731L120.4 721.3L122.3 721.3L122.3 723.5L122.1 723.5Q122.4 722.7 122.8 722.2Q123.2 721.6 123.8 721.4Q124.4 721.1 125.1 721.1L125.1 721.1Q126.1 721.1 126.8 721.8Q127.5 722.4 127.7 723.6L127.7 723.6L127.5 723.6Q127.7 722.8 128.1 722.2Q128.6 721.7 129.3 721.4Q129.9 721.1 130.7 721.1L130.7 721.1Q131.6 721.1 132.3 721.5Q133.0 721.9 133.4 722.6Q133.8 723.4 133.8 724.5L133.8 724.5L133.8 731L131.9 731L131.9 724.7Q131.9 723.7 131.3 723.2Q130.8 722.8 130.0 722.8L130.0 722.8Q129.4 722.8 129.0 723.1Q128.5 723.3 128.3 723.8Q128.1 724.2 128.1 724.8L128.1 724.8L128.1 731L126.2 731L126.2 724.5Q126.2 723.8 125.7 723.3Q125.2 722.8 124.4 722.8L124.4 722.8Q123.8 722.8 123.4 723.1Q122.9 723.3 122.6 723.8Q122.4 724.3 122.4 725.0L122.4 725.0L122.4 731ZM140.5 731.2L140.5 731.2Q139.0 731.2 138.0 730.6Q136.9 730.0 136.4 728.8Q135.8 727.7 135.8 726.2L135.8 726.2Q135.8 724.7 136.4 723.6Q136.9 722.4 137.9 721.8Q139.0 721.2 140.3 721.2L140.3 721.2Q141.2 721.2 142.0 721.4Q142.8 721.7 143.4 722.3Q144.0 722.9 144.3 723.9Q144.7 724.8 144.7 726.1L144.7 726.1L144.7 726.7L136.8 726.7L136.8 725.3L143.7 725.3L142.8 725.7Q142.8 724.9 142.5 724.2Q142.2 723.5 141.7 723.1Q141.1 722.7 140.3 722.7L140.3 722.7Q139.5 722.7 138.9 723.1Q138.3 723.5 138.0 724.2Q137.7 724.8 137.7 725.6L137.7 725.6L137.7 726.5Q137.7 727.5 138.1 728.2Q138.4 728.9 139.0 729.3Q139.6 729.6 140.5 729.6L140.5 729.6Q141.0 729.6 141.5 729.5Q141.9 729.3 142.2 729.0Q142.6 728.7 142.7 728.2L142.7 728.2L144.5 728.5Q144.3 729.3 143.7 729.9Q143.2 730.5 142.3 730.9Q141.5 731.2 140.5 731.2Z M155.5 731.2L155.5 731.2Q154.1 731.2 153.1 730.6Q152.0 729.9 151.5 728.8Q150.9 727.7 150.9 726.2L150.9 726.2Q150.9 724.7 151.5 723.5Q152.0 722.4 153.1 721.8Q154.1 721.2 155.5 721.2L155.5 721.2Q156.2 721.2 156.9 721.4Q157.6 721.6 158.1 722.0Q158.7 722.4 159.0 722.9Q159.4 723.5 159.6 724.2L159.6 724.2L157.7 724.5Q157.6 724.1 157.4 723.8Q157.2 723.5 156.9 723.3Q156.7 723.0 156.3 722.9Q155.9 722.8 155.5 722.8L155.5 722.8Q154.6 722.8 154.0 723.2Q153.4 723.7 153.1 724.5Q152.9 725.2 152.9 726.2L152.9 726.2Q152.9 727.1 153.1 727.9Q153.4 728.7 154.0 729.1Q154.6 729.6 155.5 729.6L155.5 729.6Q155.9 729.6 156.3 729.4Q156.7 729.3 157.0 729.1Q157.3 728.9 157.4 728.5Q157.6 728.2 157.7 727.8L157.7 727.8L159.6 728.1Q159.4 728.8 159.1 729.4Q158.7 730.0 158.1 730.4Q157.6 730.8 156.9 731.0Q156.2 731.2 155.5 731.2ZM165.7 731.2L165.7 731.2Q164.3 731.2 163.3 730.6Q162.3 729.9 161.7 728.8Q161.1 727.7 161.1 726.2L161.1 726.2Q161.1 724.7 161.7 723.5Q162.3 722.4 163.3 721.8Q164.3 721.2 165.7 721.2L165.7 721.2Q167.1 721.2 168.1 721.8Q169.1 722.4 169.7 723.5Q170.2 724.7 170.2 726.2L170.2 726.2Q170.2 727.7 169.7 728.8Q169.1 729.9 168.1 730.6Q167.1 731.2 165.7 731.2ZM165.7 729.6L165.7 729.6Q166.5 729.6 167.1 729.1Q167.7 728.7 168.0 727.9Q168.3 727.1 168.3 726.2L168.3 726.2Q168.3 725.2 168.0 724.5Q167.7 723.7 167.1 723.2Q166.5 722.8 165.7 722.8L165.7 722.8Q164.8 722.8 164.2 723.2Q163.7 723.7 163.4 724.5Q163.1 725.2 163.1 726.2L163.1 726.2Q163.1 727.1 163.4 727.9Q163.7 728.7 164.2 729.1Q164.8 729.6 165.7 729.6ZM175.6 731.1L175.6 731.1Q174.6 731.1 173.9 730.7Q173.1 730.3 172.7 729.5Q172.3 728.6 172.3 727.4L172.3 727.4L172.3 721.3L174.2 721.3L174.2 727.2Q174.2 728.3 174.7 728.9Q175.3 729.5 176.3 729.5L176.3 729.5Q176.9 729.5 177.4 729.2Q177.9 728.9 178.2 728.4Q178.5 727.8 178.5 727.0L178.5 727.0L178.5 721.3L180.4 721.3L180.4 731L178.6 731L178.6 728.6L178.8 728.6Q178.4 729.9 177.6 730.5Q176.8 731.1 175.6 731.1ZM184.8 725.3L184.8 725.3L184.8 731L182.9 731L182.9 721.3L184.8 721.3L184.8 723.7L184.5 723.7Q185.0 722.4 185.8 721.8Q186.6 721.2 187.8 721.2L187.8 721.2Q188.8 721.2 189.5 721.6Q190.3 722 190.7 722.8Q191.1 723.6 191.1 724.9L191.1 724.9L191.1 731L189.2 731L189.2 725.1Q189.2 724.0 188.6 723.4Q188.1 722.8 187.1 722.8L187.1 722.8Q186.5 722.8 186.0 723.1Q185.4 723.4 185.1 723.9Q184.8 724.5 184.8 725.3ZM192.5 721.3L197.9 721.3L197.9 722.9L192.5 722.9L192.5 721.3ZM194.0 728.6L194.0 718.9L195.9 718.9L195.9 728.4Q195.9 729.0 196.2 729.2Q196.4 729.5 197.0 729.5L197.0 729.5Q197.1 729.5 197.4 729.5Q197.6 729.4 197.8 729.4L197.8 729.4L198.1 730.9Q197.8 731.0 197.4 731.1Q197.1 731.1 196.8 731.1L196.8 731.1Q195.4 731.1 194.7 730.4Q194.0 729.8 194.0 728.6L194.0 728.6ZM203.3 731.2L203.3 731.2Q202.1 731.2 201.2 730.6Q200.3 730.0 199.7 728.8Q199.2 727.7 199.2 726.2L199.2 726.2Q199.2 724.6 199.7 723.5Q200.3 722.4 201.2 721.8Q202.1 721.2 203.3 721.2L203.3 721.2Q204.2 721.2 204.7 721.4Q205.3 721.7 205.6 722.1Q205.9 722.5 206.1 722.8L206.1 722.8L206.2 722.8L206.2 717.9L208.1 717.9L208.1 731L206.3 731L206.3 729.5L206.1 729.5Q206.0 729.9 205.6 730.2Q205.2 730.6 204.7 730.9Q204.1 731.2 203.3 731.2ZM203.7 729.6L203.7 729.6Q204.5 729.6 205.1 729.1Q205.7 728.7 206.0 727.9Q206.3 727.2 206.3 726.2L206.3 726.2Q206.3 725.1 206.0 724.4Q205.7 723.6 205.1 723.2Q204.5 722.8 203.7 722.8L203.7 722.8Q202.9 722.8 202.3 723.2Q201.8 723.7 201.5 724.4Q201.2 725.2 201.2 726.2L201.2 726.2Q201.2 727.1 201.5 727.9Q201.8 728.7 202.3 729.1Q202.9 729.6 203.7 729.6ZM214.7 731.2L214.7 731.2Q213.4 731.2 212.3 730.6Q211.3 729.9 210.7 728.8Q210.2 727.7 210.2 726.2L210.2 726.2Q210.2 724.7 210.7 723.5Q211.3 722.4 212.3 721.8Q213.4 721.2 214.7 721.2L214.7 721.2Q216.1 721.2 217.1 721.8Q218.2 722.4 218.7 723.5Q219.3 724.7 219.3 726.2L219.3 726.2Q219.3 727.7 218.7 728.8Q218.2 729.9 217.1 730.6Q216.1 731.2 214.7 731.2ZM214.7 729.6L214.7 729.6Q215.6 729.6 216.2 729.1Q216.8 728.7 217.1 727.9Q217.4 727.1 217.4 726.2L217.4 726.2Q217.4 725.2 217.1 724.5Q216.8 723.7 216.2 723.2Q215.6 722.8 214.7 722.8L214.7 722.8Q213.9 722.8 213.3 723.2Q212.7 723.7 212.4 724.5Q212.1 725.2 212.1 726.2L212.1 726.2Q212.1 727.1 212.4 727.9Q212.7 728.7 213.3 729.1Q213.9 729.6 214.7 729.6ZM225.4 731L223.5 731L220.5 721.3L222.5 721.3L223.6 725.3Q223.9 726.2 224.1 727.3Q224.4 728.4 224.6 729.7L224.6 729.7L224.4 729.7Q224.6 728.5 224.9 727.4Q225.2 726.3 225.4 725.3L225.4 725.3L226.5 721.3L228.4 721.3L229.5 725.3Q229.7 726.2 230.0 727.3Q230.2 728.4 230.5 729.7L230.5 729.7L230.2 729.7Q230.5 728.5 230.7 727.4Q231.0 726.3 231.2 725.3L231.2 725.3L232.3 721.3L234.3 721.3L231.4 731L229.5 731L228.3 726.8Q228.1 726.2 227.9 725.5Q227.7 724.8 227.6 724.1Q227.4 723.4 227.2 722.7L227.2 722.7L227.6 722.7Q227.5 723.4 227.3 724.1Q227.1 724.8 227.0 725.5Q226.8 726.2 226.6 726.8L226.6 726.8L225.4 731ZM238.0 725.3L238.0 725.3L238.0 731L236.0 731L236.0 721.3L237.9 721.3L237.9 723.7L237.6 723.7Q238.1 722.4 238.9 721.8Q239.7 721.2 240.9 721.2L240.9 721.2Q241.9 721.2 242.6 721.6Q243.4 722 243.8 722.8Q244.2 723.6 244.2 724.9L244.2 724.9L244.2 731L242.3 731L242.3 725.1Q242.3 724.0 241.7 723.4Q241.2 722.8 240.2 722.8L240.2 722.8Q239.6 722.8 239.1 723.1Q238.5 723.4 238.2 723.9Q238.0 724.5 238.0 725.3Z " opacity="0.7"/></g><mask id="satori_om-id-3-1"><rect x="1003" y="714" width="133" height="22" fill="#fff"/></mask><g opacity="0.7"></g><g  ><path fill="#ffffff" d="M1006.3 731L1004.4 731L1004.4 717.9L1007.3 717.9L1010.2 725.5Q1010.3 725.8 1010.5 726.3Q1010.6 726.8 1010.8 727.4Q1010.9 728.0 1011.1 728.5Q1011.3 729.1 1011.4 729.5L1011.4 729.5L1010.9 729.5Q1011.0 729.1 1011.2 728.5Q1011.3 728.0 1011.5 727.4Q1011.7 726.8 1011.8 726.3Q1012.0 725.8 1012.1 725.5L1012.1 725.5L1014.9 717.9L1017.9 717.9L1017.9 731L1015.9 731L1015.9 723.9Q1015.9 723.5 1015.9 723.0Q1015.9 722.4 1015.9 721.8Q1015.9 721.2 1016.0 720.6Q1016.0 719.9 1016.0 719.3L1016.0 719.3L1016.1 719.3Q1016.0 720.0 1015.7 720.7Q1015.5 721.3 1015.3 721.9Q1015.1 722.6 1015.0 723.1Q1014.8 723.6 1014.7 723.9L1014.7 723.9L1012.0 731L1010.3 731L1007.6 723.9Q1007.4 723.6 1007.2 723.1Q1007.1 722.6 1006.9 722.0Q1006.7 721.4 1006.5 720.7Q1006.3 720.0 1006.0 719.3L1006.0 719.3L1006.3 719.3Q1006.3 719.9 1006.3 720.5Q1006.3 721.1 1006.3 721.7Q1006.3 722.4 1006.3 722.9Q1006.3 723.5 1006.3 723.9L1006.3 723.9L1006.3 731ZM1023.3 731.2L1023.3 731.2Q1022.3 731.2 1021.6 730.9Q1020.8 730.5 1020.4 729.9Q1020.0 729.2 1020.0 728.2L1020.0 728.2Q1020.0 727.4 1020.3 726.9Q1020.6 726.4 1021.1 726.1Q1021.7 725.7 1022.4 725.6Q1023.0 725.4 1023.7 725.3L1023.7 725.3Q1024.6 725.2 1025.1 725.2Q1025.7 725.1 1025.9 725.0Q1026.2 724.8 1026.2 724.5L1026.2 724.5L1026.2 724.4Q1026.2 723.9 1026.0 723.5Q1025.7 723.1 1025.3 722.9Q1024.9 722.7 1024.3 722.7L1024.3 722.7Q1023.7 722.7 1023.2 722.9Q1022.7 723.1 1022.5 723.4Q1022.2 723.7 1022.1 724.1L1022.1 724.1L1020.2 723.7Q1020.5 722.8 1021.1 722.3Q1021.7 721.7 1022.5 721.4Q1023.3 721.2 1024.3 721.2L1024.3 721.2Q1024.9 721.2 1025.6 721.3Q1026.3 721.5 1026.8 721.9Q1027.4 722.2 1027.7 722.9Q1028.1 723.5 1028.1 724.5L1028.1 724.5L1028.1 731L1026.2 731L1026.2 729.7L1026.1 729.7Q1025.9 730.0 1025.6 730.4Q1025.2 730.7 1024.6 731.0Q1024.1 731.2 1023.3 731.2ZM1023.7 729.7L1023.7 729.7Q1024.5 729.7 1025.0 729.4Q1025.6 729.0 1025.9 728.5Q1026.2 728.0 1026.2 727.5L1026.2 727.5L1026.2 726.3Q1026.1 726.4 1025.8 726.4Q1025.5 726.5 1025.2 726.6Q1024.8 726.6 1024.4 726.7Q1024.1 726.7 1023.8 726.8L1023.8 726.8Q1023.3 726.8 1022.9 727.0Q1022.4 727.2 1022.1 727.5Q1021.9 727.8 1021.9 728.3L1021.9 728.3Q1021.9 728.7 1022.1 729.0Q1022.3 729.3 1022.7 729.5Q1023.2 729.7 1023.7 729.7ZM1034.2 731.2L1034.2 731.2Q1033.0 731.2 1032.1 730.6Q1031.2 730.0 1030.6 728.8Q1030.1 727.7 1030.1 726.2L1030.1 726.2Q1030.1 724.6 1030.6 723.5Q1031.2 722.4 1032.1 721.8Q1033.0 721.2 1034.2 721.2L1034.2 721.2Q1035.0 721.2 1035.6 721.4Q1036.2 721.7 1036.5 722.1Q1036.8 722.5 1037.0 722.8L1037.0 722.8L1037.1 722.8L1037.1 717.9L1039.0 717.9L1039.0 731L1037.2 731L1037.2 729.5L1037.0 729.5Q1036.8 729.9 1036.5 730.2Q1036.1 730.6 1035.6 730.9Q1035.0 731.2 1034.2 731.2ZM1034.6 729.6L1034.6 729.6Q1035.4 729.6 1036.0 729.1Q1036.6 728.7 1036.9 727.9Q1037.2 727.2 1037.2 726.2L1037.2 726.2Q1037.2 725.1 1036.9 724.4Q1036.6 723.6 1036.0 723.2Q1035.4 722.8 1034.6 722.8L1034.6 722.8Q1033.8 722.8 1033.2 723.2Q1032.7 723.7 1032.4 724.4Q1032.1 725.2 1032.1 726.2L1032.1 726.2Q1032.1 727.1 1032.4 727.9Q1032.7 728.7 1033.2 729.1Q1033.8 729.6 1034.6 729.6ZM1045.7 731.2L1045.7 731.2Q1044.3 731.2 1043.2 730.6Q1042.2 730.0 1041.6 728.8Q1041.1 727.7 1041.1 726.2L1041.1 726.2Q1041.1 724.7 1041.6 723.6Q1042.2 722.4 1043.2 721.8Q1044.2 721.2 1045.5 721.2L1045.5 721.2Q1046.4 721.2 1047.2 721.4Q1048 721.7 1048.6 722.3Q1049.2 722.9 1049.6 723.9Q1049.9 724.8 1049.9 726.1L1049.9 726.1L1049.9 726.7L1042.1 726.7L1042.1 725.3L1048.9 725.3L1048.1 725.7Q1048.1 724.9 1047.8 724.2Q1047.5 723.5 1046.9 723.1Q1046.4 722.7 1045.6 722.7L1045.6 722.7Q1044.7 722.7 1044.2 723.1Q1043.6 723.5 1043.3 724.2Q1043.0 724.8 1043.0 725.6L1043.0 725.6L1043.0 726.5Q1043.0 727.5 1043.3 728.2Q1043.7 728.9 1044.3 729.3Q1044.9 729.6 1045.7 729.6L1045.7 729.6Q1046.3 729.6 1046.7 729.5Q1047.2 729.3 1047.5 729.0Q1047.8 728.7 1048.0 728.2L1048.0 728.2L1049.8 728.5Q1049.6 729.3 1049.0 729.9Q1048.4 730.5 1047.6 730.9Q1046.8 731.2 1045.7 731.2Z M1060.7 731L1058.7 731L1055.8 721.3L1057.8 721.3L1058.9 725.3Q1059.1 726.2 1059.4 727.3Q1059.7 728.4 1059.9 729.7L1059.9 729.7L1059.7 729.7Q1059.9 728.5 1060.2 727.4Q1060.4 726.3 1060.7 725.3L1060.7 725.3L1061.8 721.3L1063.7 721.3L1064.7 725.3Q1065.0 726.2 1065.3 727.3Q1065.5 728.4 1065.8 729.7L1065.8 729.7L1065.5 729.7Q1065.7 728.5 1066.0 727.4Q1066.3 726.3 1066.5 725.3L1066.5 725.3L1067.6 721.3L1069.6 721.3L1066.7 731L1064.8 731L1063.5 726.8Q1063.4 726.2 1063.2 725.5Q1063.0 724.8 1062.9 724.1Q1062.7 723.4 1062.5 722.7L1062.5 722.7L1062.9 722.7Q1062.7 723.4 1062.6 724.1Q1062.4 724.8 1062.2 725.5Q1062.1 726.2 1061.9 726.8L1061.9 726.8L1060.7 731ZM1073.2 731L1071.3 731L1071.3 721.3L1073.2 721.3L1073.2 731ZM1072.3 719.8L1072.3 719.8Q1071.8 719.8 1071.4 719.4Q1071.1 719.1 1071.1 718.6L1071.1 718.6Q1071.1 718.1 1071.4 717.8Q1071.8 717.5 1072.3 717.5L1072.3 717.5Q1072.8 717.5 1073.1 717.8Q1073.5 718.1 1073.5 718.6L1073.5 718.6Q1073.5 719.1 1073.1 719.4Q1072.8 719.8 1072.3 719.8ZM1074.6 721.3L1080.0 721.3L1080.0 722.9L1074.6 722.9L1074.6 721.3ZM1076.1 728.6L1076.1 718.9L1078.0 718.9L1078.0 728.4Q1078.0 729.0 1078.3 729.2Q1078.5 729.5 1079.1 729.5L1079.1 729.5Q1079.3 729.5 1079.5 729.5Q1079.7 729.4 1079.9 729.4L1079.9 729.4L1080.2 730.9Q1079.9 731.0 1079.6 731.1Q1079.2 731.1 1078.9 731.1L1078.9 731.1Q1077.5 731.1 1076.8 730.4Q1076.1 729.8 1076.1 728.6L1076.1 728.6ZM1083.7 725.3L1083.7 725.3L1083.7 731L1081.8 731L1081.8 717.9L1083.7 717.9L1083.7 723.7L1083.4 723.7Q1083.8 722.4 1084.7 721.8Q1085.5 721.2 1086.6 721.2L1086.6 721.2Q1087.6 721.2 1088.4 721.6Q1089.1 722 1089.6 722.8Q1090.0 723.6 1090.0 724.9L1090.0 724.9L1090.0 731L1088.1 731L1088.1 725.1Q1088.1 724.0 1087.5 723.4Q1087.0 722.8 1086.0 722.8L1086.0 722.8Q1085.3 722.8 1084.8 723.1Q1084.3 723.4 1084.0 723.9Q1083.7 724.5 1083.7 725.3Z M1099.3 731L1097.3 731L1097.3 717.9L1102.0 717.9Q1103.5 717.9 1104.5 718.4Q1105.5 719.0 1106.0 719.9Q1106.6 720.9 1106.6 722.1L1106.6 722.1Q1106.6 723.3 1106.0 724.3Q1105.5 725.2 1104.5 725.8Q1103.5 726.3 1102.0 726.3L1102.0 726.3L1098.7 726.3L1098.7 724.6L1101.8 724.6Q1102.8 724.6 1103.4 724.3Q1104.0 724.0 1104.3 723.4Q1104.6 722.9 1104.6 722.1L1104.6 722.1Q1104.6 721.4 1104.3 720.8Q1104.0 720.3 1103.4 719.9Q1102.8 719.6 1101.8 719.6L1101.8 719.6L1099.3 719.6L1099.3 731ZM1110.5 731L1108.6 731L1108.6 721.3L1110.5 721.3L1110.5 731ZM1109.6 719.8L1109.6 719.8Q1109.1 719.8 1108.7 719.4Q1108.4 719.1 1108.4 718.6L1108.4 718.6Q1108.4 718.1 1108.7 717.8Q1109.1 717.5 1109.6 717.5L1109.6 717.5Q1110.1 717.5 1110.4 717.8Q1110.8 718.1 1110.8 718.6L1110.8 718.6Q1110.8 719.1 1110.4 719.4Q1110.1 719.8 1109.6 719.8ZM1114.9 725.3L1114.9 725.3L1114.9 731L1113.0 731L1113.0 721.3L1114.8 721.3L1114.9 723.7L1114.6 723.7Q1115.0 722.4 1115.9 721.8Q1116.7 721.2 1117.8 721.2L1117.8 721.2Q1118.8 721.2 1119.6 721.6Q1120.3 722 1120.8 722.8Q1121.2 723.6 1121.2 724.9L1121.2 724.9L1121.2 731L1119.3 731L1119.3 725.1Q1119.3 724.0 1118.7 723.4Q1118.2 722.8 1117.2 722.8L1117.2 722.8Q1116.6 722.8 1116.0 723.1Q1115.5 723.4 1115.2 723.9Q1114.9 724.5 1114.9 725.3ZM1130.0 731L1127.5 731L1122.8 717.9L1125.0 717.9L1127.5 725.2Q1127.8 726.1 1128.2 727.3Q1128.5 728.5 1129 730.1L1129 730.1L1128.6 730.1Q1129.0 728.5 1129.4 727.3Q1129.7 726.1 1130.0 725.2L1130.0 725.2L1132.5 717.9L1134.7 717.9L1130.0 731Z " opacity="0.7"/></g></svg>