<svg width="1200" height="800" viewBox="0 0 1200 800" xmlns="http://www.w3.org/2000/svg"><defs><pattern id="satori_pattern_id_0" x="0" y="0" width="1" height="1" patternUnits="objectBoundingBox"><linearGradient id="satori_biid_0" x1="-0.07692307692307718" y1="0.115384615384616" x2="1.076923076923077" y2="0.8846153846153839" spreadMethod="pad"><stop offset="0%" stop-color="#1e293b"/><stop offset="100%" stop-color="#334155"/></linearGradient><rect x="0" y="0" width="1200" height="800" fill="url(#satori_biid_0)"/></pattern></defs><mask id="satori_om-id"><rect x="0" y="0" width="1200" height="800" fill="#fff"/></mask><rect x="0" y="0" width="1200" height="800" fill="url(#satori_pattern_id_0)"/><mask id="satori_om-id-0"><rect x="402" y="64" width="397" height="88" fill="#fff"/></mask><mask id="satori_om-id-0-0"><rect x="402" y="64" width="397" height="40" fill="#fff"/></mask><clipPath id="satori_cp-id-0-0-0"><rect x="402" y="64" width="40" height="40"/></clipPath><mask id="satori_om-id-0-0-0"><rect x="402" y="64" width="40" height="40" fill="#fff"/></mask><image x="402" y="64" width="40" height="40" href="data:image/svg+xml;utf8,%3Csvg  xmlns=%22http://www.w3.org/2000/svg%22 fill=%22none%22 stroke=%22%23fbbf24%22 stroke-width=%222%22 stroke-linecap=%22round%22 stroke-linejoin=%22round%22 width=%2224%22 height=%2224%22 viewBox=%220 0 24 24%22%3E%3Cpath d=%22M5.8 11.3 2 22l10.7-3.79%22%3E%3C/path%3E%3Cpath d=%22M4 3h.01%22%3E%3C/path%3E%3Cpath d=%22M22 8h.01%22%3E%3C/path%3E%3Cpath d=%22M15 2h.01%22%3E%3C/path%3E%3Cpath d=%22M22 20h.01%22%3E%3C/path%3E%3Cpath d=%22m22 2-2.24.75a2.9 2.9 0 0 0-1.96 3.12v0c.1.86-.57 1.63-1.45 1.63h-.38c-.86 0-1.6.6-1.76 1.44L14 10%22%3E%3C/path%3E%3Cpath d=%22m22 13-.82-.33c-.86-.34-1.82.2-1.98 1.11v0c-.11.7-.72 1.22-1.43 1.22H17%22%3E%3C/path%3E%3Cpath d=%22m11 2 .33.82c.34.86-.2 1.82-1.11 1.98v0C9.52 4.9 9 5.52 9 6.23V7%22%3E%3C/path%3E%3Cpath d=%22M11 13c1.93 1.93 2.83 4.17 2 5-.83.83-3.07-.07-5-2-1.93-1.93-2.83-4.17-2-5 .83-.83 3.07.07 5 2Z%22%3E%3C/path%3E%3C/svg%3E" preserveAspectRatio="none" clip-path="url(#satori_cp-id-0-0-0)" mask="url(#satori_om-id-0-0-0)"/><mask id="satori_om-id-0-0-0-0"><rect x="402" y="64" width="0" height="40" fill="#fff"/></mask><mask id="satori_om-id-0-0-0-1"><rect x="402" y="64" width="0" height="40" fill="#fff"/></mask><mask id="satori_om-id-0-0-0-2"><rect x="402" y="64" width="0" height="40" fill="#fff"/></mask><mask id="satori_om-id-0-0-0-3"><rect x="402" y="64" width="0" height="40" fill="#fff"/></mask><mask id="satori_om-id-0-0-0-4"><rect x="402" y="64" width="0" height="40" fill="#fff"/></mask><mask id="satori_om-id-0-0-0-5"><rect x="402" y="64" width="0" height="40" fill="#fff"/></mask><mask id="satori_om-id-0-0-0-6"><rect x="402" y="64" width="0" height="40" fill="#fff"/></mask><mask id="satori_om-id-0-0-0-7"><rect x="402" y="64" width="0" height="40" fill="#fff"/></mask><mask id="satori_om-id-0-0-0-8"><rect x="402" y="64" width="0" height="40" fill="#fff"/></mask><mask id="satori_om-id-0-0-1"><rect x="454" y="67" width="293" height="34" fill="#fff"/></mask><g  ><path fill="#fbbf24" d="M459.7 94L456.0 94L456.0 73.6L460.0 73.6L467.1 84.9Q467.5 85.5 468.0 86.4Q468.5 87.2 469.0 88.3Q469.5 89.3 470.1 90.5L470.1 90.5L469.6 90.7Q469.5 89.7 469.5 88.5Q469.4 87.3 469.4 86.2Q469.4 85.1 469.4 84.4L469.4 84.4L469.4 73.6L473.0 73.6L473.0 94L469.0 94L462.6 83.9Q462.0 83.0 461.5 82.1Q461.0 81.1 460.3 79.9Q459.7 78.7 458.9 77.1L458.9 77.1L459.4 77.0Q459.5 78.5 459.5 79.8Q459.6 81.2 459.6 82.2Q459.7 83.2 459.7 83.9L459.7 83.9L459.7 94ZM483.5 94.3L483.5 94.3Q481.2 94.3 479.6 93.3Q477.9 92.4 477.0 90.6Q476.1 88.9 476.1 86.5L476.1 86.5Q476.1 84.2 477.0 82.4Q477.9 80.7 479.5 79.7Q481.1 78.7 483.3 78.7L483.3 78.7Q484.7 78.7 486.0 79.2Q487.2 79.6 488.2 80.6Q489.2 81.5 489.7 83.0Q490.3 84.4 490.3 86.4L490.3 86.4L490.3 87.4L477.8 87.4L477.8 85.0L488.5 85.0L486.9 85.7Q486.9 84.4 486.4 83.5Q486.0 82.5 485.2 82.0Q484.5 81.5 483.3 81.5L483.3 81.5Q482.2 81.5 481.3 82.0Q480.5 82.5 480.1 83.5Q479.6 84.4 479.6 85.5L479.6 85.5L479.6 87.2Q479.6 88.6 480.1 89.5Q480.6 90.5 481.5 91.0Q482.4 91.5 483.5 91.5L483.5 91.5Q484.3 91.5 485.0 91.3Q485.6 91.1 486.1 90.6Q486.5 90.2 486.8 89.5L486.8 89.5L490.0 90.1Q489.7 91.3 488.8 92.3Q487.9 93.2 486.5 93.8Q485.2 94.3 483.5 94.3ZM500.0 94L496.4 94L491.9 78.9L495.6 78.9L497.1 84.8Q497.4 86.3 497.8 88.0Q498.2 89.7 498.6 91.8L498.6 91.8L498.2 91.8Q498.5 89.8 499.0 88.0Q499.4 86.3 499.8 84.8L499.8 84.8L501.3 78.9L504.6 78.9L506.1 84.8Q506.5 86.3 506.9 88.0Q507.4 89.7 507.7 91.8L507.7 91.8L507.3 91.8Q507.6 89.8 508.0 88.0Q508.4 86.3 508.8 84.8L508.8 84.8L510.3 78.9L514.0 78.9L509.5 94L505.9 94L504.1 87.8Q503.9 86.9 503.6 85.8Q503.4 84.8 503.1 83.7Q502.9 82.6 502.6 81.6L502.6 81.6L503.3 81.6Q503.0 82.6 502.8 83.7Q502.5 84.8 502.3 85.9Q502.0 86.9 501.8 87.8L501.8 87.8L500.0 94Z M533.2 94L529.6 94L529.6 86.1L522.0 73.6L526.3 73.6L529.9 80.0Q530.5 81.0 531.0 81.9Q531.4 82.9 531.9 84.2L531.9 84.2L530.9 84.2Q531.4 82.9 531.8 81.9Q532.3 81.0 532.8 80.0L532.8 80.0L536.4 73.6L540.6 73.6L533.2 86.1L533.2 94ZM549.7 94.3L549.7 94.3Q547.4 94.3 545.8 93.3Q544.1 92.4 543.2 90.6Q542.3 88.9 542.3 86.5L542.3 86.5Q542.3 84.2 543.2 82.4Q544.1 80.7 545.7 79.7Q547.3 78.7 549.5 78.7L549.5 78.7Q550.9 78.7 552.2 79.2Q553.4 79.6 554.4 80.6Q555.3 81.5 555.9 83.0Q556.4 84.4 556.4 86.4L556.4 86.4L556.4 87.4L543.9 87.4L543.9 85.0L554.7 85.0L553.0 85.7Q553.0 84.4 552.6 83.5Q552.2 82.5 551.4 82.0Q550.6 81.5 549.5 81.5L549.5 81.5Q548.3 81.5 547.5 82.0Q546.7 82.5 546.3 83.5Q545.8 84.4 545.8 85.5L545.8 85.5L545.8 87.2Q545.8 88.6 546.3 89.5Q546.8 90.5 547.7 91.0Q548.6 91.5 549.7 91.5L549.7 91.5Q550.5 91.5 551.2 91.3Q551.8 91.1 552.3 90.6Q552.7 90.2 553.0 89.5L553.0 89.5L556.2 90.1Q555.9 91.3 555.0 92.3Q554.1 93.2 552.7 93.8Q551.4 94.3 549.7 94.3ZM563.6 94.3L563.6 94.3Q562.2 94.3 561.0 93.8Q559.9 93.3 559.2 92.3Q558.5 91.2 558.5 89.7L558.5 89.7Q558.5 88.5 559.0 87.6Q559.5 86.8 560.3 86.3Q561.1 85.8 562.2 85.5Q563.2 85.3 564.3 85.2L564.3 85.2Q565.7 85.0 566.5 84.9Q567.3 84.8 567.7 84.6Q568.1 84.3 568.1 83.8L568.1 83.8L568.1 83.7Q568.1 83.0 567.8 82.5Q567.4 82.0 566.9 81.7Q566.3 81.4 565.4 81.4L565.4 81.4Q564.5 81.4 563.9 81.7Q563.2 82.0 562.8 82.4Q562.4 82.8 562.3 83.4L562.3 83.4L559.0 82.9Q559.3 81.5 560.3 80.6Q561.2 79.6 562.5 79.2Q563.8 78.7 565.4 78.7L565.4 78.7Q566.6 78.7 567.7 79.0Q568.8 79.2 569.7 79.8Q570.5 80.5 571.1 81.4Q571.6 82.4 571.6 83.9L571.6 83.9L571.6 94L568.2 94L568.2 91.9L568.1 91.9Q567.7 92.6 567.1 93.1Q566.6 93.6 565.7 94.0Q564.8 94.3 563.6 94.3ZM564.5 91.7L564.5 91.7Q565.6 91.7 566.4 91.2Q567.2 90.8 567.7 90.1Q568.1 89.4 568.1 88.5L568.1 88.5L568.1 86.8Q567.9 86.9 567.5 87.0Q567.1 87.2 566.6 87.3Q566.1 87.3 565.6 87.4Q565.1 87.5 564.8 87.5L564.8 87.5Q564.0 87.6 563.3 87.9Q562.7 88.1 562.3 88.6Q562.0 89.0 562.0 89.7L562.0 89.7Q562.0 90.3 562.3 90.8Q562.6 91.2 563.2 91.5Q563.8 91.7 564.5 91.7ZM578.7 94L575.2 94L575.2 78.9L578.6 78.9L578.6 81.4L578.8 81.4Q579.2 80.1 580.2 79.4Q581.1 78.7 582.5 78.7L582.5 78.7Q582.8 78.7 583.1 78.7Q583.5 78.8 583.7 78.8L583.7 78.8L583.7 82.0Q583.5 82.0 583.0 81.9Q582.5 81.9 582.1 81.9L582.1 81.9Q581.1 81.9 580.4 82.3Q579.6 82.7 579.2 83.4Q578.7 84.2 578.7 85.2L578.7 85.2L578.7 94Z M601.8 94.3L601.8 94.3Q599.1 94.3 597.0 93.0Q594.9 91.8 593.7 89.4Q592.5 87.1 592.5 83.8L592.5 83.8Q592.5 80.5 593.7 78.2Q594.9 75.9 597.0 74.6Q599.2 73.3 601.8 73.3L601.8 73.3Q603.5 73.3 605.0 73.8Q606.5 74.3 607.6 75.2Q608.7 76.1 609.5 77.5Q610.2 78.8 610.5 80.5L610.5 80.5L606.8 80.5Q606.6 79.5 606.2 78.8Q605.7 78.1 605.1 77.6Q604.4 77.1 603.6 76.9Q602.8 76.6 601.9 76.6L601.9 76.6Q600.2 76.6 598.9 77.5Q597.6 78.3 596.8 79.9Q596.1 81.5 596.1 83.8L596.1 83.8Q596.1 86.1 596.9 87.7Q597.6 89.4 598.9 90.2Q600.2 91.0 601.9 91.0L601.9 91.0Q602.8 91.0 603.6 90.8Q604.4 90.5 605.1 90.0Q605.7 89.5 606.2 88.8Q606.6 88.1 606.8 87.2L606.8 87.2L610.5 87.2Q610.3 88.7 609.6 90.0Q608.8 91.3 607.7 92.2Q606.6 93.2 605.1 93.7Q603.6 94.3 601.8 94.3ZM620.1 94.3L620.1 94.3Q617.9 94.3 616.3 93.3Q614.6 92.4 613.7 90.6Q612.8 88.8 612.8 86.5L612.8 86.5Q612.8 84.2 613.7 82.4Q614.6 80.6 616.3 79.7Q617.9 78.7 620.1 78.7L620.1 78.7Q622.3 78.7 623.9 79.7Q625.6 80.6 626.5 82.4Q627.4 84.2 627.4 86.5L627.4 86.5Q627.4 88.8 626.5 90.6Q625.6 92.4 623.9 93.3Q622.3 94.3 620.1 94.3ZM620.1 91.4L620.1 91.4Q621.3 91.4 622.1 90.8Q622.9 90.1 623.4 89.0Q623.8 87.9 623.8 86.5L623.8 86.5Q623.8 85.1 623.4 84.0Q622.9 82.9 622.1 82.2Q621.3 81.6 620.1 81.6L620.1 81.6Q618.9 81.6 618.1 82.2Q617.2 82.9 616.8 84.0Q616.4 85.1 616.4 86.5L616.4 86.5Q616.4 87.9 616.8 89.0Q617.2 90.1 618.1 90.8Q618.9 91.4 620.1 91.4ZM635.5 94.2L635.5 94.2Q634.0 94.2 632.8 93.5Q631.6 92.9 631.0 91.6Q630.3 90.3 630.3 88.5L630.3 88.5L630.3 78.9L633.8 78.9L633.8 87.9Q633.8 89.5 634.6 90.3Q635.4 91.2 636.8 91.2L636.8 91.2Q637.8 91.2 638.5 90.8Q639.2 90.4 639.6 89.6Q640.0 88.8 640.0 87.7L640.0 87.7L640.0 78.9L643.6 78.9L643.6 94L640.2 94L640.2 90.2L640.5 90.2Q639.9 92.2 638.6 93.2Q637.4 94.2 635.5 94.2ZM650.7 85.2L650.7 85.2L650.7 94L647.2 94L647.2 78.9L650.6 78.9L650.6 82.7L650.2 82.7Q650.9 80.7 652.1 79.7Q653.4 78.7 655.3 78.7L655.3 78.7Q656.8 78.7 658.0 79.4Q659.2 80.0 659.8 81.3Q660.5 82.6 660.5 84.4L660.5 84.4L660.5 94L656.9 94L656.9 85.0Q656.9 83.4 656.2 82.6Q655.4 81.7 654.0 81.7L654.0 81.7Q653.0 81.7 652.3 82.1Q651.6 82.5 651.1 83.3Q650.7 84.1 650.7 85.2ZM662.5 78.9L671.3 78.9L671.3 81.7L662.5 81.7L662.5 78.9ZM664.8 90.1L664.8 75.2L668.3 75.2L668.3 89.7Q668.3 90.5 668.7 90.9Q669.0 91.3 669.8 91.3L669.8 91.3Q670.1 91.3 670.5 91.2Q670.9 91.2 671.2 91.2L671.2 91.2L671.6 93.9Q671.1 94.0 670.5 94.1Q669.9 94.2 669.3 94.2L669.3 94.2Q667.1 94.2 665.9 93.1Q664.8 92.1 664.8 90.1L664.8 90.1ZM679.6 94.3L679.6 94.3Q677.8 94.3 676.3 93.4Q674.9 92.4 674.1 90.7Q673.3 88.9 673.3 86.5L673.3 86.5Q673.3 84.0 674.1 82.3Q674.9 80.5 676.4 79.6Q677.8 78.7 679.6 78.7L679.6 78.7Q680.8 78.7 681.7 79.1Q682.5 79.5 683.1 80.1Q683.6 80.7 683.9 81.3L683.9 81.3L684.1 81.3L684.1 73.6L687.6 73.6L687.6 94L684.1 94L684.1 91.6L683.9 91.6Q683.6 92.3 683.1 92.9Q682.5 93.5 681.7 93.9Q680.8 94.3 679.6 94.3ZM680.5 91.4L680.5 91.4Q681.7 91.4 682.5 90.7Q683.3 90.1 683.7 89.0Q684.2 87.9 684.2 86.5L684.2 86.5Q684.2 85.0 683.7 83.9Q683.3 82.8 682.5 82.2Q681.7 81.6 680.5 81.6L680.5 81.6Q679.3 81.6 678.5 82.2Q677.7 82.8 677.3 83.9Q676.9 85.0 676.9 86.5L676.9 86.5Q676.9 87.9 677.3 89.0Q677.7 90.1 678.5 90.7Q679.4 91.4 680.5 91.4ZM697.8 94.3L697.8 94.3Q695.6 94.3 693.9 93.3Q692.3 92.4 691.4 90.6Q690.5 88.8 690.5 86.5L690.5 86.5Q690.5 84.2 691.4 82.4Q692.3 80.6 693.9 79.7Q695.6 78.7 697.8 78.7L697.8 78.7Q700.0 78.7 701.6 79.7Q703.3 80.6 704.2 82.4Q705.1 84.2 705.1 86.5L705.1 86.5Q705.1 88.8 704.2 90.6Q703.3 92.4 701.6 93.3Q700.0 94.3 697.8 94.3ZM697.8 91.4L697.8 91.4Q699 91.4 699.8 90.8Q700.6 90.1 701.1 89.0Q701.5 87.9 701.5 86.5L701.5 86.5Q701.5 85.1 701.1 84.0Q700.6 82.9 699.8 82.2Q699 81.6 697.8 81.6L697.8 81.6Q696.6 81.6 695.8 82.2Q694.9 82.9 694.5 84.0Q694.1 85.1 694.1 86.5L694.1 86.5Q694.1 87.9 694.5 89.0Q694.9 90.1 695.8 90.8Q696.6 91.4 697.8 91.4ZM714.8 94L711.3 94L706.7 78.9L710.4 78.9L711.9 84.8Q712.3 86.3 712.7 88.0Q713.1 89.7 713.5 91.8L713.5 91.8L713.0 91.8Q713.4 89.8 713.8 88.0Q714.2 86.3 714.6 84.8L714.6 84.8L716.1 78.9L719.5 78.9L721.0 84.8Q721.4 86.3 721.8 88.0Q722.2 89.7 722.6 91.8L722.6 91.8L722.1 91.8Q722.5 89.8 722.9 88.0Q723.3 86.3 723.7 84.8L723.7 84.8L725.2 78.9L728.9 78.9L724.4 94L720.8 94L719.0 87.8Q718.7 86.9 718.5 85.8Q718.2 84.8 718.0 83.7Q717.7 82.6 717.5 81.6L717.5 81.6L718.1 81.6Q717.9 82.6 717.6 83.7Q717.4 84.8 717.1 85.9Q716.9 86.9 716.6 87.8L716.6 87.8L714.8 94ZM734.8 85.2L734.8 85.2L734.8 94L731.2 94L731.2 78.9L734.6 78.9L734.7 82.7L734.3 82.7Q734.9 80.7 736.2 79.7Q737.4 78.7 739.3 78.7L739.3 78.7Q740.9 78.7 742.0 79.4Q743.2 80.0 743.9 81.3Q744.5 82.6 744.5 84.4L744.5 84.4L744.5 94L741.0 94L741.0 85.0Q741.0 83.4 740.2 82.6Q739.4 81.7 738.0 81.7L738.0 81.7Q737.1 81.7 736.3 82.1Q735.6 82.5 735.2 83.3Q734.8 84.1 734.8 85.2Z "/></g><clipPath id="satori_cp-id-0-0-2"><rect x="759" y="64" width="40" height="40"/></clipPath><mask id="satori_om-id-0-0-2"><rect x="759" y="64" width="40" height="40" fill="#fff"/></mask><image x="759" y="64" width="40" height="40" href="data:image/svg+xml;utf8,%3Csvg  xmlns=%22http://www.w3.org/2000/svg%22 fill=%22none%22 stroke=%22%23fbbf24%22 stroke-width=%222%22 stroke-linecap=%22round%22 stroke-linejoin=%22round%22 width=%2224%22 height=%2224%22 viewBox=%220 0 24 24%22%3E%3Cpath d=%22M5.8 11.3 2 22l10.7-3.79%22%3E%3C/path%3E%3Cpath d=%22M4 3h.01%22%3E%3C/path%3E%3Cpath d=%22M22 8h.01%22%3E%3C/path%3E%3Cpath d=%22M15 2h.01%22%3E%3C/path%3E%3Cpath d=%22M22 20h.01%22%3E%3C/path%3E%3Cpath d=%22m22 2-2.24.75a2.9 2.9 0 0 0-1.96 3.12v0c.1.86-.57 1.63-1.45 1.63h-.38c-.86 0-1.6.6-1.76 1.44L14 10%22%3E%3C/path%3E%3Cpath d=%22m22 13-.82-.33c-.86-.34-1.82.2-1.98 1.11v0c-.11.7-.72 1.22-1.43 1.22H17%22%3E%3C/path%3E%3Cpath d=%22m11 2 .33.82c.34.86-.2 1.82-1.11 1.98v0C9.52 4.9 9 5.52 9 6.23V7%22%3E%3C/path%3E%3Cpath d=%22M11 13c1.93 1.93 2.83 4.17 2 5-.83.83-3.07-.07-5-2-1.93-1.93-2.83-4.17-2-5 .83-.83 3.07.07 5 2Z%22%3E%3C/path%3E%3C/svg%3E" preserveAspectRatio="none" clip-path="url(#satori_cp-id-0-0-2)" mask="url(#satori_om-id-0-0-2)"/><mask id="satori_om-id-0-0-2-0"><rect x="759" y="64" width="0" height="40" fill="#fff"/></mask><mask id="satori_om-id-0-0-2-1"><rect x="759" y="64" width="0" height="40" fill="#fff"/></mask><mask id="satori_om-id-0-0-2-2"><rect x="759" y="64" width="0" height="40" fill="#fff"/></mask><mask id="satori_om-id-0-0-2-3"><rect x="759" y="64" width="0" height="40" fill="#fff"/></mask><mask id="satori_om-id-0-0-2-4"><rect x="759" y="64" width="0" height="40" fill="#fff"/></mask><mask id="satori_om-id-0-0-2-5"><rect x="759" y="64" width="0" height="40" fill="#fff"/></mask><mask id="satori_om-id-0-0-2-6"><rect x="759" y="64" width="0" height="40" fill="#fff"/></mask><mask id="satori_om-id-0-0-2-7"><rect x="759" y="64" width="0" height="40" fill="#fff"/></mask><mask id="satori_om-id-0-0-2-8"><rect x="759" y="64" width="0" height="40" fill="#fff"/></mask><mask id="satori_om-id-0-1"><rect x="504" y="128" width="194" height="24" fill="#fff"/></mask><g opacity="0.8"></g><g  ><path fill="#f1f5f9" d="M509.4 134.4L504.8 134.4L504.8 132.4L516.1 132.4L516.1 134.4L511.6 134.4L511.6 147L509.4 147L509.4 134.4ZM520.5 132.4L522.7 132.4L522.7 147L520.5 147L520.5 132.4ZM529.9 147L527.8 147L527.8 132.4L531.0 132.4L534.2 140.8Q534.3 141.2 534.5 141.8Q534.7 142.3 534.9 143.0Q535.1 143.6 535.2 144.2Q535.4 144.8 535.5 145.3L535.5 145.3L535.0 145.3Q535.2 144.9 535.3 144.3Q535.5 143.6 535.7 143.0Q535.9 142.4 536.0 141.8Q536.2 141.2 536.3 140.8L536.3 140.8L539.5 132.4L542.7 132.4L542.7 147L540.5 147L540.5 139.1Q540.5 138.7 540.5 138.1Q540.6 137.5 540.6 136.8Q540.6 136.1 540.6 135.4Q540.6 134.7 540.6 134.1L540.6 134.1L540.8 134.1Q540.6 134.8 540.4 135.5Q540.2 136.2 539.9 136.9Q539.7 137.6 539.5 138.2Q539.3 138.8 539.2 139.1L539.2 139.1L536.2 147L534.3 147L531.3 139.1Q531.1 138.8 530.9 138.2Q530.8 137.7 530.5 137.0Q530.3 136.3 530.1 135.5Q529.8 134.8 529.6 134.1L529.6 134.1L529.8 134.1Q529.8 134.7 529.9 135.3Q529.9 136.0 529.9 136.7Q529.9 137.4 529.9 138.0Q529.9 138.7 529.9 139.1L529.9 139.1L529.9 147ZM557.2 147L547.8 147L547.8 132.4L557.1 132.4L557.1 134.4L550.1 134.4L550.1 138.7L556.6 138.7L556.6 140.6L550.1 140.6L550.1 145.1L557.2 145.1L557.2 147Z M571.3 147L569.0 147L569.0 132.4L574.3 132.4Q576.0 132.4 577.1 133.0Q578.2 133.6 578.8 134.6Q579.4 135.7 579.4 137.0L579.4 137.0Q579.4 138.4 578.8 139.4Q578.2 140.4 577.1 140.9Q575.9 141.5 574.3 141.5L574.3 141.5L570.3 141.5L570.3 139.6L574.1 139.6Q575.2 139.6 575.8 139.3Q576.5 139.0 576.8 138.4Q577.1 137.8 577.1 137.0L577.1 137.0Q577.1 136.2 576.8 135.6Q576.5 135.0 575.8 134.7Q575.2 134.4 574.1 134.4L574.1 134.4L571.3 134.4L571.3 147ZM579.9 147L577.3 147L573.8 140.4L576.3 140.4L579.9 147ZM593.3 147L584.0 147L584.0 132.4L593.3 132.4L593.3 134.4L586.2 134.4L586.2 138.7L592.8 138.7L592.8 140.6L586.2 140.6L586.2 145.1L593.3 145.1L593.3 147ZM600.1 147L598.0 147L598.0 132.4L601.2 132.4L604.4 140.8Q604.5 141.2 604.7 141.8Q604.9 142.3 605.1 143.0Q605.2 143.6 605.4 144.2Q605.6 144.8 605.7 145.3L605.7 145.3L605.2 145.3Q605.4 144.9 605.5 144.3Q605.7 143.6 605.9 143.0Q606.1 142.4 606.2 141.8Q606.4 141.2 606.5 140.8L606.5 140.8L609.7 132.4L612.9 132.4L612.9 147L610.7 147L610.7 139.1Q610.7 138.7 610.7 138.1Q610.8 137.5 610.8 136.8Q610.8 136.1 610.8 135.4Q610.8 134.7 610.8 134.1L610.8 134.1L611.0 134.1Q610.8 134.8 610.6 135.5Q610.4 136.2 610.1 136.9Q609.9 137.6 609.7 138.2Q609.5 138.8 609.4 139.1L609.4 139.1L606.4 147L604.5 147L601.5 139.1Q601.3 138.8 601.1 138.2Q600.9 137.7 600.7 137.0Q600.5 136.3 600.3 135.5Q600.0 134.8 599.8 134.1L599.8 134.1L600.0 134.1Q600.0 134.7 600.1 135.3Q600.1 136.0 600.1 136.7Q600.1 137.4 600.1 138.0Q600.1 138.7 600.1 139.1L600.1 139.1L600.1 147ZM619.3 147L616.9 147L622.1 132.4L624.8 132.4L630.1 147L627.7 147L624.9 138.9Q624.5 137.9 624.1 136.6Q623.7 135.3 623.2 133.4L623.2 133.4L623.7 133.4Q623.2 135.3 622.8 136.6Q622.4 137.9 622.1 138.9L622.1 138.9L619.3 147ZM627.2 143.2L619.7 143.2L619.7 141.3L627.2 141.3L627.2 143.2ZM634.1 132.4L636.3 132.4L636.3 147L634.1 147L634.1 132.4ZM643.6 147L641.4 147L641.4 132.4L643.9 132.4L649.4 141.1Q649.7 141.5 650.0 142.1Q650.3 142.7 650.7 143.4Q651.1 144.1 651.4 144.9L651.4 144.9L651.2 145.1Q651.1 144.3 651.1 143.5Q651.0 142.7 651.0 142.0Q651.0 141.3 651.0 140.8L651.0 140.8L651.0 132.4L653.2 132.4L653.2 147L650.7 147L645.7 139.2Q645.4 138.7 645.0 138.0Q644.6 137.4 644.2 136.5Q643.7 135.7 643.1 134.5L643.1 134.5L643.4 134.4Q643.5 135.5 643.5 136.5Q643.6 137.4 643.6 138.1Q643.6 138.8 643.6 139.2L643.6 139.2L643.6 147ZM658.3 132.4L660.5 132.4L660.5 147L658.3 147L658.3 132.4ZM667.9 147L665.6 147L665.6 132.4L668.2 132.4L673.6 141.1Q673.9 141.5 674.2 142.1Q674.6 142.7 674.9 143.4Q675.3 144.1 675.7 144.9L675.7 144.9L675.4 145.1Q675.4 144.3 675.3 143.5Q675.3 142.7 675.3 142.0Q675.2 141.3 675.2 140.8L675.2 140.8L675.2 132.4L677.5 132.4L677.5 147L674.9 147L670.0 139.2Q669.7 138.7 669.3 138.0Q668.9 137.4 668.4 136.5Q668.0 135.7 667.3 134.5L667.3 134.5L667.7 134.4Q667.7 135.5 667.8 136.5Q667.8 137.4 667.8 138.1Q667.9 138.8 667.9 139.2L667.9 139.2L667.9 147ZM688.7 147.2L688.7 147.2Q686.7 147.2 685.2 146.3Q683.7 145.4 682.9 143.7Q682.1 142.0 682.1 139.7L682.1 139.7Q682.1 137.4 682.9 135.8Q683.8 134.1 685.2 133.2Q686.7 132.2 688.6 132.2L688.6 132.2Q689.8 132.2 690.8 132.6Q691.8 132.9 692.7 133.6Q693.5 134.2 694.0 135.1Q694.5 136.0 694.7 137.1L694.7 137.1L692.4 137.1Q692.2 136.4 691.9 135.9Q691.6 135.4 691.1 135.0Q690.6 134.7 690.0 134.5Q689.4 134.3 688.6 134.3L688.6 134.3Q687.4 134.3 686.4 134.9Q685.4 135.5 684.8 136.8Q684.2 138.0 684.2 139.7L684.2 139.7Q684.2 141.5 684.8 142.7Q685.4 143.9 686.4 144.5Q687.4 145.2 688.7 145.2L688.7 145.2Q689.9 145.2 690.8 144.7Q691.7 144.2 692.1 143.3Q692.6 142.5 692.6 141.3L692.6 141.3L693.2 141.4L689.1 141.4L689.1 139.5L694.8 139.5L694.8 141.2Q694.8 143.0 694.0 144.4Q693.2 145.7 691.8 146.5Q690.5 147.2 688.7 147.2Z " opacity="0.8"/></g><mask id="satori_om-id-1"><rect x="243" y="198" width="715" height="195" fill="#fff"/></mask><mask id="satori_om-id-1-0"><rect x="243" y="198" width="715" height="140" fill="#fff"/></mask><g  ><path fill="#f1f5f9" d="M287.2 320.4L287.2 320.4Q276.2 320.4 267.9 316.5Q259.5 312.6 254.8 305.8Q250.1 299.0 249.9 290.2L249.9 290.2L268.1 290.2Q268.3 294.8 270.8 298.2Q273.3 301.6 277.5 303.4Q281.8 305.3 287.2 305.3L287.2 305.3Q292.8 305.3 297.0 303.3Q301.3 301.4 303.7 297.9Q306.2 294.4 306.2 289.7L306.2 289.7Q306.2 285.1 303.7 281.5Q301.2 278.0 296.5 276.0Q291.9 274.0 285.4 274.0L285.4 274.0L276.4 274.0L276.4 259.9L285.4 259.9Q290.8 259.9 294.9 258.1Q299.0 256.2 301.3 252.9Q303.6 249.6 303.6 245.2L303.6 245.2Q303.6 240.7 301.5 237.4Q299.5 234.2 295.9 232.3Q292.2 230.5 287.3 230.5L287.3 230.5Q282.4 230.5 278.4 232.3Q274.4 234.0 272.0 237.3Q269.6 240.6 269.5 245.2L269.5 245.2L252.0 245.2Q252.2 236.5 256.8 229.9Q261.5 223.2 269.4 219.5Q277.4 215.7 287.4 215.7L287.4 215.7Q297.6 215.7 305.1 219.5Q312.7 223.3 317.0 229.7Q321.2 236.1 321.2 243.9L321.2 243.9Q321.2 252.5 316.1 258.3Q311.0 264.2 302.7 266.0L302.7 266.0L302.7 266.7Q309.7 267.7 314.7 271.0Q319.6 274.3 322.2 279.3Q324.8 284.3 324.8 290.6L324.8 290.6Q324.8 299.2 319.9 306.0Q315.1 312.7 306.6 316.6Q298.2 320.4 287.2 320.4ZM377.2 320.4L377.2 320.4Q364.8 320.4 356.0 314.2Q347.2 308.0 342.6 296.3Q337.9 284.6 337.9 268.1L337.9 268.1Q337.9 251.7 342.6 240.0Q347.3 228.3 356.1 222.0Q364.8 215.7 377.2 215.7L377.2 215.7Q389.5 215.7 398.3 222.0Q407.1 228.3 411.7 240.0Q416.4 251.7 416.4 268.1L416.4 268.1Q416.4 284.5 411.8 296.3Q407.1 308.0 398.3 314.2Q389.6 320.4 377.2 320.4ZM377.2 305.2L377.2 305.2Q383.9 305.2 388.6 300.8Q393.4 296.4 395.9 288.2Q398.4 279.9 398.4 268.1L398.4 268.1Q398.4 256.3 395.9 248.0Q393.4 239.7 388.6 235.3Q383.9 230.9 377.2 230.9L377.2 230.9Q370.4 230.9 365.7 235.3Q361.0 239.7 358.5 248.0Q356.0 256.3 356.0 268.1L356.0 268.1Q356.0 279.9 358.5 288.2Q360.9 296.4 365.7 300.8Q370.4 305.2 377.2 305.2ZM468.3 320.4L468.3 320.4Q460.7 320.4 453.6 317.8Q446.6 315.1 441.2 309.3Q435.8 303.4 432.7 294.0Q429.6 284.5 429.6 271.0L429.6 271.0Q429.6 258.0 432.3 247.8Q435.0 237.6 440.2 230.4Q445.3 223.2 452.7 219.5Q460.1 215.7 469.4 215.7L469.4 215.7Q479.0 215.7 486.4 219.4Q493.8 223.2 498.4 229.7Q502.9 236.1 503.9 244.4L503.9 244.4L486.2 244.4Q484.9 238.5 480.5 234.8Q476.2 231.2 469.4 231.2L469.4 231.2Q462.2 231.2 457.2 235.4Q452.2 239.6 449.7 247.4Q447.1 255.2 447.1 265.7L447.1 265.7L447.7 265.7Q450.2 261.5 454.0 258.4Q457.9 255.4 462.7 253.8Q467.6 252.1 473.0 252.1L473.0 252.1Q482.1 252.1 489.3 256.4Q496.5 260.7 500.7 268.2Q505.0 275.8 505.0 285.5L505.0 285.5Q505.0 295.6 500.3 303.4Q495.7 311.3 487.5 315.9Q479.3 320.4 468.3 320.4ZM468.2 305.6L468.2 305.6Q473.7 305.6 478.0 303.0Q482.3 300.3 484.8 295.8Q487.3 291.3 487.3 285.8L487.3 285.8Q487.3 280.2 484.9 275.8Q482.5 271.4 478.2 268.8Q473.9 266.2 468.4 266.2L468.4 266.2Q464.4 266.2 460.9 267.7Q457.4 269.2 454.8 272.0Q452.2 274.7 450.7 278.3Q449.2 281.8 449.2 285.8L449.2 285.8Q449.2 291.2 451.7 295.7Q454.2 300.2 458.5 302.9Q462.8 305.6 468.2 305.6ZM557.4 320.4L557.4 320.4Q545.0 320.4 536.2 314.2Q527.4 308.0 522.8 296.3Q518.1 284.6 518.1 268.1L518.1 268.1Q518.1 251.7 522.8 240.0Q527.5 228.3 536.3 222.0Q545.0 215.7 557.4 215.7L557.4 215.7Q569.7 215.7 578.5 222.0Q587.3 228.3 591.9 240.0Q596.6 251.7 596.6 268.1L596.6 268.1Q596.6 284.5 592.0 296.3Q587.3 308.0 578.5 314.2Q569.8 320.4 557.4 320.4ZM557.4 305.2L557.4 305.2Q564.1 305.2 568.8 300.8Q573.6 296.4 576.1 288.2Q578.6 279.9 578.6 268.1L578.6 268.1Q578.6 256.3 576.1 248.0Q573.6 239.7 568.8 235.3Q564.1 230.9 557.4 230.9L557.4 230.9Q550.6 230.9 545.9 235.3Q541.2 239.7 538.7 248.0Q536.2 256.3 536.2 268.1L536.2 268.1Q536.2 279.9 538.7 288.2Q541.1 296.4 545.9 300.8Q550.6 305.2 557.4 305.2ZM647.4 320.4L647.4 320.4Q636.3 320.4 627.9 316.7Q619.4 313.0 614.6 306.5Q609.7 300.1 609.7 291.7L609.7 291.7Q609.7 285.2 612.6 279.8Q615.5 274.4 620.4 270.8Q625.3 267.2 631.6 266.2L631.6 266.2L631.6 265.7Q623.4 264.0 618.4 257.8Q613.4 251.5 613.4 243.1L613.4 243.1Q613.4 235.1 617.8 229.0Q622.2 222.8 629.8 219.3Q637.5 215.7 647.4 215.7L647.4 215.7Q657.2 215.7 664.9 219.3Q672.6 222.8 677.0 229.0Q681.4 235.1 681.4 243.1L681.4 243.1Q681.4 251.5 676.4 257.8Q671.3 264.0 663.3 265.7L663.3 265.7L663.3 266.2Q669.4 267.2 674.4 270.8Q679.3 274.4 682.2 279.8Q685.1 285.2 685.1 291.7L685.1 291.7Q685.1 300.1 680.3 306.5Q675.4 313.0 666.9 316.7Q658.4 320.4 647.4 320.4ZM647.4 306.4L647.4 306.4Q653.2 306.4 657.4 304.4Q661.7 302.4 664.1 298.8Q666.4 295.2 666.4 290.4L666.4 290.4Q666.4 285.6 664.0 281.8Q661.5 278.0 657.2 275.8Q652.9 273.7 647.4 273.7L647.4 273.7Q641.9 273.7 637.6 275.8Q633.3 278.0 630.8 281.7Q628.3 285.5 628.3 290.4L628.3 290.4Q628.3 295.2 630.7 298.8Q633.1 302.4 637.3 304.4Q641.6 306.4 647.4 306.4ZM647.4 259.8L647.4 259.8Q652.1 259.8 655.8 257.9Q659.4 256.0 661.6 252.6Q663.7 249.2 663.7 244.8L663.7 244.8Q663.7 240.3 661.6 237.0Q659.6 233.7 655.9 231.8Q652.2 230.0 647.4 230.0L647.4 230.0Q642.6 230.0 638.9 231.8Q635.2 233.7 633.2 237.0Q631.1 240.3 631.1 244.8L631.1 244.8Q631.1 249.2 633.2 252.6Q635.2 256.0 638.9 257.9Q642.6 259.8 647.4 259.8ZM733.8 320.4L733.8 320.4Q723.7 320.4 715.8 316.6Q707.9 312.8 703.3 306.0Q698.6 299.3 698.3 290.7L698.3 290.7L716.0 290.7Q716.3 295.1 718.7 298.4Q721.1 301.8 725.0 303.7Q729.0 305.6 733.8 305.6L733.8 305.6Q739.3 305.6 743.6 303.1Q747.8 300.5 750.2 296.1Q752.6 291.7 752.6 285.8L752.6 285.8Q752.6 280.0 750.2 275.4Q747.7 270.9 743.4 268.3Q739.2 265.7 733.5 265.7L733.5 265.7Q728.3 265.7 723.7 267.8Q719.1 269.8 716.7 273.2L716.7 273.2L700.1 271.1L704.9 217.1L764.8 217.1L764.8 232.4L720.3 232.4L717.6 259.5L718.0 259.5Q721.2 255.9 726.4 253.7Q731.7 251.5 737.9 251.5L737.9 251.5Q744.8 251.5 750.7 254.0Q756.7 256.5 761.0 261.1Q765.4 265.7 767.8 271.9Q770.3 278.1 770.3 285.4L770.3 285.4Q770.3 295.6 765.6 303.5Q761.0 311.3 752.8 315.9Q744.6 320.4 733.8 320.4ZM822.7 320.4L822.7 320.4Q810.3 320.4 801.5 314.2Q792.7 308.0 788.1 296.3Q783.4 284.6 783.4 268.1L783.4 268.1Q783.4 251.7 788.1 240.0Q792.8 228.3 801.6 222.0Q810.3 215.7 822.7 215.7L822.7 215.7Q835.0 215.7 843.8 222.0Q852.6 228.3 857.2 240.0Q861.9 251.7 861.9 268.1L861.9 268.1Q861.9 284.5 857.3 296.3Q852.6 308.0 843.8 314.2Q835.1 320.4 822.7 320.4ZM822.7 305.2L822.7 305.2Q829.4 305.2 834.1 300.8Q838.9 296.4 841.4 288.2Q843.9 279.9 843.9 268.1L843.9 268.1Q843.9 256.3 841.4 248.0Q838.9 239.7 834.1 235.3Q829.4 230.9 822.7 230.9L822.7 230.9Q815.9 230.9 811.2 235.3Q806.5 239.7 804.0 248.0Q801.5 256.3 801.5 268.1L801.5 268.1Q801.5 279.9 804.0 288.2Q806.4 296.4 811.2 300.8Q815.9 305.2 822.7 305.2ZM910.6 320.5L910.6 320.5Q901.0 320.5 893.6 316.7Q886.2 313.0 881.6 306.5Q877.0 299.9 876.0 291.6L876.0 291.6L893.8 291.6Q895.1 297.6 899.5 301.3Q903.8 305.0 910.6 305.0L910.6 305.0Q917.8 305.0 922.8 300.7Q927.8 296.5 930.3 288.8Q932.9 281.0 932.9 270.3L932.9 270.3L932.3 270.3Q929.9 274.6 926.0 277.6Q922.2 280.7 917.4 282.3Q912.6 283.9 907.1 283.9L907.1 283.9Q898.0 283.9 890.7 279.6Q883.5 275.3 879.3 267.8Q875.1 260.2 875.1 250.6L875.1 250.6Q875.1 240.5 879.7 232.6Q884.3 224.6 892.6 220.0Q900.9 215.5 911.8 215.6L911.8 215.6Q919.5 215.6 926.4 218.4Q933.4 221.1 938.8 226.9Q944.2 232.7 947.3 242.1Q950.5 251.5 950.5 265.1L950.5 265.1Q950.5 278.1 947.7 288.3Q945.0 298.6 939.8 305.8Q934.7 313.0 927.3 316.7Q919.9 320.5 910.6 320.5ZM911.6 269.8L911.6 269.8Q915.6 269.8 919.1 268.3Q922.6 266.8 925.2 264.0Q927.8 261.3 929.3 257.8Q930.8 254.2 930.8 250.2L930.8 250.2Q930.8 244.8 928.3 240.3Q925.8 235.9 921.6 233.2Q917.3 230.5 911.8 230.5L911.8 230.5Q906.4 230.5 902.1 233.1Q897.7 235.7 895.3 240.3Q892.8 244.8 892.8 250.3L892.8 250.3Q892.8 255.8 895.2 260.2Q897.6 264.7 901.9 267.3Q906.2 269.8 911.6 269.8Z "/></g><mask id="satori_om-id-1-1"><rect x="537" y="354" width="128" height="39" fill="#fff"/></mask><g opacity="0.9"></g><g  ><path fill="#f1f5f9" d="M545.5 385.4L545.5 385.4Q543.5 385.4 542.1 384.8Q540.6 384.3 539.6 383.1Q538.7 382.0 538.4 380.5L538.4 380.5L541.7 379.9Q542.0 381.3 542.9 381.9Q543.9 382.6 545.5 382.6L545.5 382.6Q547.1 382.6 548.1 381.9Q549.0 381.3 549.0 380.3L549.0 380.3Q549.0 379.4 548.4 378.9Q547.8 378.4 546.6 378.1L546.6 378.1L543.7 377.5Q541.3 376.9 540.1 375.7Q538.9 374.5 538.9 372.6L538.9 372.6Q538.9 371.1 539.8 369.9Q540.6 368.8 542.1 368.1Q543.6 367.5 545.6 367.5L545.6 367.5Q547.5 367.5 548.8 368.1Q550.2 368.6 551.0 369.7Q551.9 370.7 552.2 372.1L552.2 372.1L549.0 372.6Q548.8 371.6 548.0 370.9Q547.1 370.2 545.6 370.2L545.6 370.2Q544.2 370.2 543.3 370.8Q542.3 371.5 542.3 372.5L542.3 372.5Q542.3 373.3 543.0 373.9Q543.6 374.4 545.0 374.7L545.0 374.7L547.8 375.3Q550.2 375.9 551.4 377.0Q552.5 378.2 552.5 380.0L552.5 380.0Q552.5 381.6 551.6 382.8Q550.7 384.0 549.1 384.7Q547.5 385.4 545.5 385.4ZM563.5 385.4L563.5 385.4Q561.0 385.4 559.1 384.3Q557.3 383.1 556.3 381.1Q555.3 379.1 555.3 376.5L555.3 376.5Q555.3 373.8 556.3 371.8Q557.3 369.8 559.1 368.6Q560.9 367.5 563.3 367.5L563.3 367.5Q564.8 367.5 566.2 368.0Q567.6 368.5 568.7 369.6Q569.8 370.7 570.4 372.3Q571.0 374.0 571.0 376.2L571.0 376.2L571.0 377.4L557.1 377.4L557.1 374.8L569.3 374.8L567.7 375.7Q567.7 374.1 567.2 372.9Q566.7 371.7 565.7 371.0Q564.7 370.3 563.3 370.3L563.3 370.3Q561.8 370.3 560.8 371Q559.8 371.7 559.2 372.8Q558.7 374.0 558.7 375.4L558.7 375.4L558.7 377.0Q558.7 378.8 559.3 380.0Q559.9 381.3 561.0 381.9Q562.1 382.5 563.6 382.5L563.6 382.5Q564.5 382.5 565.3 382.3Q566.1 382.0 566.7 381.4Q567.3 380.8 567.5 380.0L567.5 380.0L570.8 380.6Q570.4 382.0 569.4 383.1Q568.4 384.2 566.9 384.8Q565.4 385.4 563.5 385.4ZM581.9 385.4L581.9 385.4Q579.4 385.4 577.6 384.2Q575.8 383.1 574.8 381.1Q573.8 379.1 573.8 376.5L573.8 376.5Q573.8 373.8 574.8 371.8Q575.8 369.7 577.6 368.6Q579.4 367.5 581.9 367.5L581.9 367.5Q583.3 367.5 584.5 367.9Q585.7 368.2 586.6 368.9Q587.6 369.6 588.2 370.6Q588.9 371.6 589.2 372.8L589.2 372.8L585.9 373.5Q585.7 372.8 585.4 372.2Q585.0 371.6 584.5 371.2Q584.0 370.8 583.4 370.6Q582.7 370.4 581.9 370.4L581.9 370.4Q580.3 370.4 579.3 371.2Q578.3 372 577.8 373.4Q577.3 374.7 577.3 376.5L577.3 376.5Q577.3 378.1 577.8 379.5Q578.3 380.9 579.3 381.7Q580.3 382.5 581.9 382.5L581.9 382.5Q582.7 382.5 583.4 382.2Q584.0 382.0 584.6 381.6Q585.1 381.2 585.4 380.6Q585.8 380.0 585.9 379.3L585.9 379.3L589.2 379.9Q588.9 381.2 588.3 382.2Q587.6 383.2 586.6 383.9Q585.7 384.6 584.5 385.0Q583.3 385.4 581.9 385.4ZM600.0 385.4L600.0 385.4Q597.6 385.4 595.8 384.2Q594.0 383.1 592.9 381.1Q591.9 379.1 591.9 376.5L591.9 376.5Q591.9 373.8 592.9 371.8Q594.0 369.7 595.8 368.6Q597.6 367.5 600.0 367.5L600.0 367.5Q602.5 367.5 604.3 368.6Q606.1 369.7 607.1 371.8Q608.1 373.8 608.1 376.5L608.1 376.5Q608.1 379.1 607.1 381.1Q606.1 383.1 604.3 384.2Q602.5 385.4 600.0 385.4ZM600.0 382.5L600.0 382.5Q601.6 382.5 602.6 381.7Q603.7 380.9 604.2 379.5Q604.7 378.1 604.7 376.5L604.7 376.5Q604.7 374.8 604.2 373.4Q603.7 372.0 602.6 371.2Q601.6 370.4 600.0 370.4L600.0 370.4Q598.5 370.4 597.5 371.2Q596.4 372.0 595.9 373.4Q595.4 374.8 595.4 376.5L595.4 376.5Q595.4 378.1 595.9 379.5Q596.4 380.9 597.5 381.7Q598.5 382.5 600.0 382.5ZM615.2 374.8L615.2 374.8L615.2 385L611.8 385L611.8 367.8L615.0 367.8L615.0 372.0L614.6 372.0Q615.4 369.7 616.8 368.6Q618.3 367.5 620.3 367.5L620.3 367.5Q622.1 367.5 623.4 368.3Q624.8 369 625.5 370.5Q626.3 371.9 626.3 374.1L626.3 374.1L626.3 385L622.9 385L622.9 374.5Q622.9 372.6 621.9 371.5Q620.9 370.5 619.2 370.5L619.2 370.5Q618.1 370.5 617.1 371.0Q616.2 371.5 615.7 372.5Q615.2 373.4 615.2 374.8ZM637.2 385.3L637.2 385.3Q635.0 385.3 633.4 384.3Q631.8 383.2 630.8 381.2Q629.9 379.2 629.9 376.4L629.9 376.4Q629.9 373.6 630.8 371.6Q631.8 369.6 633.4 368.6Q635.1 367.5 637.2 367.5L637.2 367.5Q638.7 367.5 639.7 368.0Q640.7 368.5 641.3 369.2Q641.9 369.9 642.2 370.5L642.2 370.5L642.4 370.5L642.4 361.7L645.8 361.7L645.8 385L642.5 385L642.5 382.3L642.2 382.3Q641.9 383.0 641.3 383.7Q640.6 384.4 639.6 384.9Q638.7 385.3 637.2 385.3ZM637.9 382.4L637.9 382.4Q639.4 382.4 640.4 381.7Q641.4 380.9 641.9 379.5Q642.5 378.2 642.5 376.4L642.5 376.4Q642.5 374.6 641.9 373.2Q641.4 371.9 640.4 371.2Q639.4 370.4 637.9 370.4L637.9 370.4Q636.4 370.4 635.4 371.2Q634.4 371.9 633.9 373.3Q633.4 374.6 633.4 376.4L633.4 376.4Q633.4 378.1 633.9 379.5Q634.4 380.9 635.4 381.7Q636.5 382.4 637.9 382.4ZM656.4 385.4L656.4 385.4Q654.5 385.4 653.0 384.8Q651.6 384.3 650.6 383.1Q649.7 382.0 649.4 380.5L649.4 380.5L652.7 379.9Q653.0 381.3 653.9 381.9Q654.9 382.6 656.4 382.6L656.4 382.6Q658.1 382.6 659.0 381.9Q660.0 381.3 660.0 380.3L660.0 380.3Q660.0 379.4 659.4 378.9Q658.8 378.4 657.6 378.1L657.6 378.1L654.7 377.5Q652.3 376.9 651.1 375.7Q649.9 374.5 649.9 372.6L649.9 372.6Q649.9 371.1 650.7 369.9Q651.6 368.8 653.1 368.1Q654.6 367.5 656.5 367.5L656.5 367.5Q658.4 367.5 659.8 368.1Q661.2 368.6 662.0 369.7Q662.8 370.7 663.1 372.1L663.1 372.1L660.0 372.6Q659.8 371.6 659.0 370.9Q658.1 370.2 656.6 370.2L656.6 370.2Q655.2 370.2 654.2 370.8Q653.3 371.5 653.3 372.5L653.3 372.5Q653.3 373.3 654.0 373.9Q654.6 374.4 656.0 374.7L656.0 374.7L658.8 375.3Q661.2 375.9 662.4 377.0Q663.5 378.2 663.5 380.0L663.5 380.0Q663.5 381.6 662.6 382.8Q661.7 384.0 660.1 384.7Q658.5 385.4 656.4 385.4Z " opacity="0.9"/></g><mask id="satori_om-id-2"><rect x="333" y="439" width="534" height="151" fill="#fff"/></mask><defs><clipPath id="satori_bc-id-2-0"><path x="333" y="439" width="211" height="151" d="M357,439 h163 a24,24 0 0 1 24,24 v103 a24,24 0 0 1 -24,24 h-163 a24,24 0 0 1 -24,-24 v-103 a24,24 0 0 1 24,-24"/></clipPath></defs><mask id="satori_om-id-2-0"><rect x="334" y="440" width="209" height="149" fill="#fff"/><path width="211" height="151" fill="none" stroke="#000" stroke-width="2" d="M340.029,446.029 A24,24 0 0 1 357,439 h163 a24,24 0 0 1 24,24 v103 a24,24 0 0 1 -24,24 h-163 a24,24 0 0 1 -24,-24 v-103 A24,24 0 0 1 340.029,446.029"/></mask><path x="333" y="439" width="211" height="151" fill="rgba(15, 23, 42, 0.9)" d="M357,439 h163 a24,24 0 0 1 24,24 v103 a24,24 0 0 1 -24,24 h-163 a24,24 0 0 1 -24,-24 v-103 a24,24 0 0 1 24,-24"/><path width="211" height="151" clip-path="url(#satori_bc-id-2-0)" fill="none" stroke="rgba(148, 163, 184, 0.4)" stroke-width="2" d="M340.029,446.029 A24,24 0 0 1 357,439 h163 a24,24 0 0 1 24,24 v103 a24,24 0 0 1 -24,24 h-163 a24,24 0 0 1 -24,-24 v-103 A24,24 0 0 1 340.029,446.029"/><mask id="satori_om-id-2-0-0"><rect x="358" y="464" width="161" height="77" fill="#fff"/></mask><g  ><path fill="#f1f5f9" d="M378.2 526.7L378.2 526.7Q373.2 526.7 369.3 525.0Q365.4 523.3 363.2 520.3Q361 517.3 361 513.5L361 513.5Q361 510.6 362.3 508.1Q363.6 505.6 365.9 504.0Q368.1 502.3 371.0 501.9L371.0 501.9L371.0 501.7Q367.3 500.9 365.0 498Q362.7 495.1 362.7 491.3L362.7 491.3Q362.7 487.7 364.7 484.8Q366.7 482.0 370.2 480.4Q373.7 478.8 378.2 478.8L378.2 478.8Q382.7 478.8 386.2 480.4Q389.7 482.0 391.7 484.8Q393.8 487.7 393.8 491.3L393.8 491.3Q393.8 495.1 391.5 498Q389.2 500.9 385.5 501.7L385.5 501.7L385.5 501.9Q388.3 502.3 390.5 504.0Q392.8 505.6 394.1 508.1Q395.4 510.6 395.4 513.5L395.4 513.5Q395.4 517.3 393.2 520.3Q391.0 523.3 387.1 525.0Q383.3 526.7 378.2 526.7ZM378.2 520.3L378.2 520.3Q380.8 520.3 382.8 519.3Q384.8 518.4 385.8 516.8Q386.9 515.1 386.9 512.9L386.9 512.9Q386.9 510.7 385.8 509.0Q384.7 507.3 382.7 506.3Q380.7 505.3 378.2 505.3L378.2 505.3Q375.7 505.3 373.7 506.3Q371.8 507.3 370.6 509.0Q369.5 510.7 369.5 512.9L369.5 512.9Q369.5 515.1 370.6 516.8Q371.7 518.4 373.6 519.3Q375.6 520.3 378.2 520.3ZM378.2 498.9L378.2 498.9Q380.4 498.9 382.0 498.1Q383.7 497.2 384.7 495.7Q385.7 494.1 385.7 492.1L385.7 492.1Q385.7 490.0 384.7 488.5Q383.8 487 382.1 486.2Q380.4 485.3 378.2 485.3L378.2 485.3Q376 485.3 374.3 486.2Q372.6 487 371.7 488.5Q370.8 490.0 370.8 492.1L370.8 492.1Q370.8 494.1 371.7 495.6Q372.7 497.2 374.3 498.1Q376.0 498.9 378.2 498.9ZM417.7 526.6L417.7 526.6Q413.1 526.6 409.5 524.9Q405.9 523.2 403.8 520.1Q401.6 517 401.5 513.1L401.5 513.1L409.6 513.1Q409.7 515.1 410.8 516.6Q411.9 518.1 413.7 519Q415.5 519.9 417.7 519.9L417.7 519.9Q420.2 519.9 422.2 518.7Q424.1 517.6 425.2 515.5Q426.3 513.5 426.3 510.8L426.3 510.8Q426.3 508.2 425.2 506.1Q424.1 504 422.1 502.8Q420.2 501.7 417.6 501.7L417.6 501.7Q415.2 501.7 413.1 502.6Q411 503.5 409.9 505.1L409.9 505.1L402.3 504.1L404.5 479.4L431.9 479.4L431.9 486.4L411.5 486.4L410.3 498.8L410.5 498.8Q411.9 497.2 414.3 496.2Q416.8 495.2 419.6 495.2L419.6 495.2Q422.8 495.2 425.5 496.3Q428.2 497.4 430.2 499.5Q432.2 501.6 433.3 504.5Q434.4 507.3 434.4 510.7L434.4 510.7Q434.4 515.3 432.3 518.9Q430.1 522.5 426.4 524.6Q422.6 526.6 417.7 526.6ZM458.3 526.7L458.3 526.7Q452.7 526.7 448.7 523.8Q444.7 521.0 442.5 515.6Q440.4 510.3 440.4 502.8L440.4 502.8Q440.4 495.2 442.5 489.9Q444.7 484.5 448.7 481.7Q452.7 478.8 458.3 478.8L458.3 478.8Q464.0 478.8 468.0 481.7Q472 484.5 474.1 489.9Q476.3 495.2 476.3 502.8L476.3 502.8Q476.3 510.3 474.2 515.6Q472.0 521.0 468.0 523.8Q464 526.7 458.3 526.7ZM458.3 519.7L458.3 519.7Q461.4 519.7 463.6 517.7Q465.8 515.7 466.9 511.9Q468.0 508.1 468.0 502.8L468.0 502.8Q468.0 497.3 466.9 493.5Q465.8 489.8 463.6 487.7Q461.4 485.7 458.3 485.7L458.3 485.7Q455.3 485.7 453.1 487.7Q450.9 489.8 449.8 493.5Q448.7 497.3 448.7 502.8L448.7 502.8Q448.7 508.1 449.8 511.9Q450.9 515.7 453.1 517.7Q455.3 519.7 458.3 519.7ZM515.1 526L483.1 526L483.1 519.9L499.4 504.3Q501.7 502 503.3 500.2Q504.9 498.4 505.7 496.7Q506.5 494.9 506.5 492.9L506.5 492.9Q506.5 490.6 505.5 489.0Q504.5 487.3 502.8 486.5Q501 485.6 498.7 485.6L498.7 485.6Q496.3 485.6 494.5 486.6Q492.7 487.6 491.8 489.4Q490.8 491.2 490.8 493.8L490.8 493.8L482.9 493.8Q482.9 489.2 484.9 485.9Q486.9 482.5 490.5 480.6Q494.1 478.8 498.8 478.8L498.8 478.8Q503.4 478.8 507.0 480.5Q510.5 482.3 512.5 485.4Q514.5 488.5 514.5 492.5L514.5 492.5Q514.5 495.2 513.5 497.7Q512.5 500.2 510.0 503.2Q507.6 506.2 503.3 510.3L503.3 510.3L494.6 518.8L494.6 519.1L515.1 519.1L515.1 526Z "/></g><mask id="satori_om-id-2-0-1"><rect x="410" y="541" width="57" height="24" fill="#fff"/></mask><g opacity="0.8"></g><g  ><path fill="#f1f5f9" d="M413.8 560L411.5 560L411.5 545.4L413.8 545.4L413.8 551.6L421.0 551.6L421.0 545.4L423.2 545.4L423.2 560L421.0 560L421.0 553.5L413.8 553.5L413.8 560ZM430.7 560.2L430.7 560.2Q429.2 560.2 428.0 559.5Q426.9 558.8 426.2 557.6Q425.6 556.3 425.6 554.7L425.6 554.7Q425.6 553.0 426.2 551.7Q426.9 550.5 428.0 549.8Q429.2 549.1 430.7 549.1L430.7 549.1Q432.2 549.1 433.3 549.8Q434.5 550.5 435.1 551.7Q435.7 553.0 435.7 554.7L435.7 554.7Q435.7 556.3 435.1 557.6Q434.5 558.8 433.3 559.5Q432.2 560.2 430.7 560.2ZM430.7 558.4L430.7 558.4Q431.6 558.4 432.3 557.9Q432.9 557.4 433.3 556.6Q433.6 555.7 433.6 554.7L433.6 554.7Q433.6 553.6 433.3 552.7Q432.9 551.9 432.3 551.4Q431.6 550.9 430.7 550.9L430.7 550.9Q429.7 550.9 429.1 551.4Q428.4 551.9 428.1 552.7Q427.8 553.6 427.8 554.7L427.8 554.7Q427.8 555.7 428.1 556.6Q428.4 557.4 429.1 557.9Q429.7 558.4 430.7 558.4ZM441.7 560.1L441.7 560.1Q440.6 560.1 439.8 559.7Q438.9 559.2 438.5 558.3Q438.0 557.4 438.0 556.0L438.0 556.0L438.0 549.2L440.1 549.2L440.1 555.8Q440.1 557.0 440.7 557.6Q441.4 558.3 442.4 558.3L442.4 558.3Q443.2 558.3 443.7 558.0Q444.3 557.7 444.6 557.1Q445.0 556.4 445.0 555.6L445.0 555.6L445.0 549.2L447.1 549.2L447.1 560L445.0 560L445.0 557.4L445.3 557.4Q444.8 558.8 443.9 559.5Q443.0 560.1 441.7 560.1ZM452.0 560L449.8 560L449.8 549.2L451.9 549.2L451.9 550.9L452.0 550.9Q452.3 550.1 453.0 549.6Q453.7 549.1 454.7 549.1L454.7 549.1Q454.9 549.1 455.2 549.1Q455.4 549.1 455.6 549.1L455.6 549.1L455.6 551.1Q455.5 551.1 455.1 551.1Q454.8 551.0 454.5 551.0L454.5 551.0Q453.8 551.0 453.2 551.3Q452.6 551.6 452.3 552.2Q452.0 552.7 452.0 553.5L452.0 553.5L452.0 560ZM461.3 560.2L461.3 560.2Q460.1 560.2 459.2 559.9Q458.2 559.5 457.6 558.8Q457.1 558.2 456.9 557.2L456.9 557.2L458.9 556.8Q459.1 557.7 459.7 558.1Q460.3 558.5 461.3 558.5L461.3 558.5Q462.3 558.5 462.9 558.1Q463.5 557.7 463.5 557.1L463.5 557.1Q463.5 556.5 463.1 556.2Q462.7 555.8 462.0 555.7L462.0 555.7L460.2 555.3Q458.7 554.9 457.9 554.2Q457.2 553.4 457.2 552.3L457.2 552.3Q457.2 551.3 457.7 550.6Q458.2 549.9 459.2 549.5Q460.1 549.1 461.3 549.1L461.3 549.1Q462.5 549.1 463.4 549.4Q464.2 549.8 464.8 550.4Q465.3 551.1 465.5 551.9L465.5 551.9L463.5 552.3Q463.4 551.6 462.8 551.2Q462.3 550.7 461.4 550.7L461.4 550.7Q460.5 550.7 459.9 551.1Q459.3 551.5 459.3 552.2L459.3 552.2Q459.3 552.7 459.7 553.0Q460.1 553.4 461.0 553.6L461.0 553.6L462.7 554.0Q464.2 554.3 465.0 555.0Q465.7 555.7 465.7 556.9L465.7 556.9Q465.7 557.9 465.1 558.6Q464.6 559.4 463.6 559.8Q462.6 560.2 461.3 560.2Z " opacity="0.8"/></g><defs><clipPath id="satori_bc-id-2-1"><path x="576" y="439" width="126" height="151" d="M600,439 h78 a24,24 0 0 1 24,24 v103 a24,24 0 0 1 -24,24 h-78 a24,24 0 0 1 -24,-24 v-103 a24,24 0 0 1 24,-24"/></clipPath></defs><mask id="satori_om-id-2-1"><rect x="577" y="440" width="124" height="149" fill="#fff"/><path width="126" height="151" fill="none" stroke="#000" stroke-width="2" d="M583.029,446.029 A24,24 0 0 1 600,439 h78 a24,24 0 0 1 24,24 v103 a24,24 0 0 1 -24,24 h-78 a24,24 0 0 1 -24,-24 v-103 A24,24 0 0 1 583.029,446.029"/></mask><path x="576" y="439" width="126" height="151" fill="rgba(15, 23, 42, 0.9)" d="M600,439 h78 a24,24 0 0 1 24,24 v103 a24,24 0 0 1 -24,24 h-78 a24,24 0 0 1 -24,-24 v-103 a24,24 0 0 1 24,-24"/><path width="126" height="151" clip-path="url(#satori_bc-id-2-1)" fill="none" stroke="rgba(148, 163, 184, 0.4)" stroke-width="2" d="M583.029,446.029 A24,24 0 0 1 600,439 h78 a24,24 0 0 1 24,24 v103 a24,24 0 0 1 -24,24 h-78 a24,24 0 0 1 -24,-24 v-103 A24,24 0 0 1 583.029,446.029"/><mask id="satori_om-id-2-1-0"><rect x="606" y="464" width="66" height="77" fill="#fff"/></mask><g  ><path fill="#f1f5f9" d="M641.8 526L609.8 526L609.8 519.9L626.1 504.3Q628.4 502 630.0 500.2Q631.6 498.4 632.4 496.7Q633.3 494.9 633.3 492.9L633.3 492.9Q633.3 490.6 632.2 489.0Q631.2 487.3 629.5 486.5Q627.7 485.6 625.4 485.6L625.4 485.6Q623 485.6 621.2 486.6Q619.4 487.6 618.5 489.4Q617.5 491.2 617.5 493.8L617.5 493.8L609.6 493.8Q609.6 489.2 611.6 485.9Q613.7 482.5 617.2 480.6Q620.8 478.8 625.5 478.8L625.5 478.8Q630.2 478.8 633.7 480.5Q637.3 482.3 639.2 485.4Q641.2 488.5 641.2 492.5L641.2 492.5Q641.2 495.2 640.2 497.7Q639.2 500.2 636.7 503.2Q634.3 506.2 630 510.3L630 510.3L621.3 518.8L621.3 519.1L641.8 519.1L641.8 526ZM658.4 479.4L667.3 479.4L667.3 526L659.1 526L659.1 487.0L658.8 487.0L647.9 494.6L647.9 486.8L658.4 479.4Z "/></g><mask id="satori_om-id-2-1-1"><rect x="601" y="541" width="76" height="24" fill="#fff"/></mask><g opacity="0.8"></g><g  ><path fill="#f1f5f9" d="M604.7 560L602.5 560L602.5 545.4L605.8 545.4L609.0 553.8Q609.1 554.2 609.3 554.8Q609.5 555.3 609.6 556.0Q609.8 556.6 610.0 557.2Q610.2 557.8 610.3 558.3L610.3 558.3L609.8 558.3Q609.9 557.9 610.1 557.3Q610.3 556.6 610.5 556.0Q610.6 555.4 610.8 554.8Q611.0 554.2 611.1 553.8L611.1 553.8L614.3 545.4L617.5 545.4L617.5 560L615.3 560L615.3 552.1Q615.3 551.7 615.3 551.1Q615.3 550.5 615.4 549.8Q615.4 549.1 615.4 548.4Q615.4 547.7 615.4 547.1L615.4 547.1L615.6 547.1Q615.4 547.8 615.2 548.5Q614.9 549.2 614.7 549.9Q614.5 550.6 614.3 551.2Q614.1 551.8 614.0 552.1L614.0 552.1L611.0 560L609.1 560L606.1 552.1Q605.9 551.8 605.7 551.2Q605.5 550.7 605.3 550.0Q605.1 549.3 604.9 548.5Q604.6 547.8 604.4 547.1L604.4 547.1L604.6 547.1Q604.6 547.7 604.6 548.3Q604.7 549.0 604.7 549.7Q604.7 550.4 604.7 551.0Q604.7 551.7 604.7 552.1L604.7 552.1L604.7 560ZM622.6 560L620.4 560L620.4 549.2L622.6 549.2L622.6 560ZM621.5 547.5L621.5 547.5Q621.0 547.5 620.6 547.2Q620.2 546.8 620.2 546.3L620.2 546.3Q620.2 545.7 620.6 545.3Q621.0 545.0 621.5 545.0L621.5 545.0Q622.1 545.0 622.5 545.3Q622.9 545.7 622.9 546.3L622.9 546.3Q622.9 546.8 622.5 547.2Q622.1 547.5 621.5 547.5ZM627.5 553.7L627.5 553.7L627.5 560L625.3 560L625.3 549.2L627.4 549.2L627.4 551.9L627.1 551.9Q627.6 550.4 628.5 549.7Q629.4 549.1 630.7 549.1L630.7 549.1Q631.8 549.1 632.6 549.5Q633.5 550 633.9 550.9Q634.4 551.8 634.4 553.2L634.4 553.2L634.4 560L632.3 560L632.3 553.4Q632.3 552.2 631.7 551.6Q631.1 550.9 630.0 550.9L630.0 550.9Q629.3 550.9 628.7 551.2Q628.1 551.6 627.8 552.2Q627.5 552.8 627.5 553.7ZM640.9 560.1L640.9 560.1Q639.8 560.1 639.0 559.7Q638.1 559.2 637.7 558.3Q637.2 557.4 637.2 556.0L637.2 556.0L637.2 549.2L639.3 549.2L639.3 555.8Q639.3 557.0 639.9 557.6Q640.5 558.3 641.6 558.3L641.6 558.3Q642.3 558.3 642.9 558.0Q643.5 557.7 643.8 557.1Q644.1 556.4 644.1 555.6L644.1 555.6L644.1 549.2L646.3 549.2L646.3 560L644.2 560L644.2 557.4L644.5 557.4Q644.0 558.8 643.1 559.5Q642.2 560.1 640.9 560.1ZM647.8 549.2L653.8 549.2L653.8 551.0L647.8 551.0L647.8 549.2ZM649.5 557.3L649.5 546.6L651.6 546.6L651.6 557.1Q651.6 557.7 651.9 558.0Q652.1 558.3 652.8 558.3L652.8 558.3Q653.0 558.3 653.2 558.3Q653.5 558.3 653.7 558.2L653.7 558.2L654.0 559.9Q653.7 560.0 653.3 560.1Q652.9 560.1 652.5 560.1L652.5 560.1Q651.1 560.1 650.3 559.4Q649.5 558.7 649.5 557.3L649.5 557.3ZM660.4 560.2L660.4 560.2Q658.8 560.2 657.7 559.5Q656.5 558.8 655.9 557.6Q655.3 556.3 655.3 554.7L655.3 554.7Q655.3 553.0 655.9 551.8Q656.5 550.5 657.6 549.8Q658.8 549.1 660.3 549.1L660.3 549.1Q661.2 549.1 662.1 549.4Q663.0 549.7 663.7 550.4Q664.3 551.0 664.7 552.1Q665.1 553.1 665.1 554.5L665.1 554.5L665.1 555.2L656.4 555.2L656.4 553.6L664.0 553.6L663.0 554.2Q663.0 553.2 662.7 552.4Q662.4 551.7 661.8 551.2Q661.2 550.8 660.3 550.8L660.3 550.8Q659.4 550.8 658.7 551.3Q658.1 551.7 657.7 552.4Q657.4 553.1 657.4 554.0L657.4 554.0L657.4 555.0Q657.4 556.1 657.8 556.9Q658.2 557.7 658.8 558.1Q659.5 558.5 660.5 558.5L660.5 558.5Q661.1 558.5 661.6 558.3Q662.1 558.1 662.4 557.8Q662.8 557.4 662.9 556.9L662.9 556.9L665.0 557.3Q664.7 558.1 664.1 558.8Q663.5 559.5 662.5 559.9Q661.6 560.2 660.4 560.2ZM671.2 560.2L671.2 560.2Q670.1 560.2 669.1 559.9Q668.2 559.5 667.6 558.8Q667.0 558.2 666.8 557.2L666.8 557.2L668.9 556.8Q669.1 557.7 669.7 558.1Q670.3 558.5 671.2 558.5L671.2 558.5Q672.3 558.5 672.9 558.1Q673.5 557.7 673.5 557.1L673.5 557.1Q673.5 556.5 673.1 556.2Q672.7 555.8 672.0 555.7L672.0 555.7L670.1 555.3Q668.6 554.9 667.9 554.2Q667.2 553.4 667.2 552.3L667.2 552.3Q667.2 551.3 667.7 550.6Q668.2 549.9 669.2 549.5Q670.1 549.1 671.3 549.1L671.3 549.1Q672.5 549.1 673.3 549.4Q674.2 549.8 674.7 550.4Q675.2 551.1 675.4 551.9L675.4 551.9L673.5 552.3Q673.3 551.6 672.8 551.2Q672.3 550.7 671.3 550.7L671.3 550.7Q670.5 550.7 669.9 551.1Q669.3 551.5 669.3 552.2L669.3 552.2Q669.3 552.7 669.7 553.0Q670.1 553.4 670.9 553.6L670.9 553.6L672.7 554.0Q674.2 554.3 674.9 555.0Q675.7 555.7 675.7 556.9L675.7 556.9Q675.7 557.9 675.1 558.6Q674.5 559.4 673.5 559.8Q672.5 560.2 671.2 560.2Z " opacity="0.8"/></g><defs><clipPath id="satori_bc-id-2-2"><path x="734" y="439" width="133" height="151" d="M758,439 h85 a24,24 0 0 1 24,24 v103 a24,24 0 0 1 -24,24 h-85 a24,24 0 0 1 -24,-24 v-103 a24,24 0 0 1 24,-24"/></clipPath></defs><mask id="satori_om-id-2-2"><rect x="735" y="440" width="131" height="149" fill="#fff"/><path width="133" height="151" fill="none" stroke="#000" stroke-width="2" d="M741.029,446.029 A24,24 0 0 1 758,439 h85 a24,24 0 0 1 24,24 v103 a24,24 0 0 1 -24,24 h-85 a24,24 0 0 1 -24,-24 v-103 A24,24 0 0 1 741.029,446.029"/></mask><path x="734" y="439" width="133" height="151" fill="rgba(15, 23, 42, 0.9)" d="M758,439 h85 a24,24 0 0 1 24,24 v103 a24,24 0 0 1 -24,24 h-85 a24,24 0 0 1 -24,-24 v-103 a24,24 0 0 1 24,-24"/><path width="133" height="151" clip-path="url(#satori_bc-id-2-2)" fill="none" stroke="rgba(148, 163, 184, 0.4)" stroke-width="2" d="M741.029,446.029 A24,24 0 0 1 758,439 h85 a24,24 0 0 1 24,24 v103 a24,24 0 0 1 -24,24 h-85 a24,24 0 0 1 -24,-24 v-103 A24,24 0 0 1 741.029,446.029"/><mask id="satori_om-id-2-2-0"><rect x="759" y="464" width="83" height="77" fill="#fff"/></mask><g  ><path fill="#f1f5f9" d="M798.5 516.9L762 516.9L762 510.3L782.1 479.4L787.5 479.4L787.5 488.7L784.3 488.7L770.5 509.8L770.5 510.1L798.5 510.1L798.5 516.9ZM792.4 526L784.4 526L784.4 514.9L784.5 511.9L784.5 479.4L792.4 479.4L792.4 526ZM820.6 526.7L820.6 526.7Q816.2 526.7 812.8 525.0Q809.4 523.3 807.3 520.3Q805.2 517.3 804.8 513.5L804.8 513.5L812.9 513.5Q813.5 516.2 815.5 517.9Q817.4 519.6 820.6 519.6L820.6 519.6Q823.9 519.6 826.1 517.7Q828.4 515.7 829.6 512.2Q830.8 508.6 830.8 503.8L830.8 503.8L830.5 503.8Q829.4 505.7 827.6 507.1Q825.9 508.5 823.7 509.2Q821.5 510.0 819.0 510.0L819.0 510.0Q814.8 510.0 811.5 508Q808.2 506.0 806.2 502.6Q804.3 499.1 804.3 494.7L804.3 494.7Q804.3 490.1 806.4 486.5Q808.6 482.8 812.3 480.8Q816.1 478.7 821.1 478.8L821.1 478.8Q824.6 478.8 827.8 480Q831.0 481.3 833.4 483.9Q835.9 486.6 837.3 490.9Q838.8 495.2 838.8 501.3L838.8 501.3Q838.8 507.3 837.5 512.0Q836.3 516.7 833.9 520.0Q831.6 523.3 828.2 525.0Q824.8 526.7 820.6 526.7ZM821 503.5L821 503.5Q822.8 503.5 824.5 502.8Q826.1 502.1 827.3 500.9Q828.4 499.6 829.1 498Q829.8 496.4 829.8 494.5L829.8 494.5Q829.8 492.1 828.7 490.0Q827.5 488 825.6 486.8Q823.6 485.6 821.1 485.6L821.1 485.6Q818.7 485.6 816.7 486.8Q814.7 487.9 813.5 490Q812.4 492.1 812.4 494.6L812.4 494.6Q812.4 497.1 813.5 499.1Q814.6 501.2 816.6 502.3Q818.5 503.5 821 503.5Z "/></g><mask id="satori_om-id-2-2-1"><rect x="759" y="541" width="83" height="24" fill="#fff"/></mask><g opacity="0.8"></g><g  ><path fill="#f1f5f9" d="M765.5 560.2L765.5 560.2Q763.8 560.2 762.6 559.7Q761.4 559.2 760.7 558.2Q760.0 557.2 760.0 555.8L760.0 555.8L762.2 555.8Q762.2 556.6 762.7 557.2Q763.1 557.7 763.8 558.0Q764.6 558.3 765.5 558.3L765.5 558.3Q766.4 558.3 767.1 558.0Q767.8 557.7 768.3 557.2Q768.7 556.7 768.7 556.0L768.7 556.0Q768.7 555.3 768.3 554.9Q768.0 554.5 767.4 554.3Q766.7 554.0 765.9 553.8L765.9 553.8L764.2 553.3Q762.3 552.8 761.3 551.9Q760.3 550.9 760.3 549.4L760.3 549.4Q760.3 548.2 761.0 547.2Q761.7 546.3 762.9 545.8Q764.0 545.2 765.5 545.2L765.5 545.2Q767.0 545.2 768.2 545.8Q769.3 546.3 769.9 547.2Q770.6 548.2 770.6 549.4L770.6 549.4L768.5 549.4Q768.4 548.3 767.6 547.8Q766.7 547.2 765.5 547.2L765.5 547.2Q764.6 547.2 763.9 547.4Q763.3 547.7 762.9 548.2Q762.6 548.7 762.6 549.3L762.6 549.3Q762.6 550.0 762.9 550.4Q763.3 550.8 763.9 551.1Q764.6 551.3 765.2 551.5L765.2 551.5L766.7 551.9Q767.4 552.1 768.2 552.4Q768.9 552.7 769.5 553.2Q770.2 553.7 770.5 554.3Q770.9 555.0 770.9 556.0L770.9 556.0Q770.9 557.2 770.2 558.2Q769.6 559.1 768.4 559.7Q767.2 560.2 765.5 560.2ZM777.9 560.2L777.9 560.2Q776.3 560.2 775.1 559.5Q774.0 558.8 773.3 557.6Q772.7 556.3 772.7 554.7L772.7 554.7Q772.7 553.0 773.3 551.8Q773.9 550.5 775.1 549.8Q776.2 549.1 777.7 549.1L777.7 549.1Q778.7 549.1 779.5 549.4Q780.4 549.7 781.1 550.4Q781.8 551.0 782.2 552.1Q782.5 553.1 782.5 554.5L782.5 554.5L782.5 555.2L773.8 555.2L773.8 553.6L781.4 553.6L780.5 554.2Q780.5 553.2 780.1 552.4Q779.8 551.7 779.2 551.2Q778.6 550.8 777.7 550.8L777.7 550.8Q776.8 550.8 776.2 551.3Q775.5 551.7 775.2 552.4Q774.8 553.1 774.8 554.0L774.8 554.0L774.8 555.0Q774.8 556.1 775.2 556.9Q775.6 557.7 776.3 558.1Q777.0 558.5 777.9 558.5L777.9 558.5Q778.5 558.5 779.0 558.3Q779.5 558.1 779.8 557.8Q780.2 557.4 780.4 556.9L780.4 556.9L782.4 557.3Q782.1 558.1 781.5 558.8Q780.9 559.5 780.0 559.9Q779.0 560.2 777.9 560.2ZM789.3 560.2L789.3 560.2Q787.8 560.2 786.7 559.5Q785.5 558.8 784.9 557.6Q784.3 556.3 784.3 554.7L784.3 554.7Q784.3 553.0 784.9 551.7Q785.5 550.5 786.7 549.8Q787.8 549.1 789.3 549.1L789.3 549.1Q790.2 549.1 790.9 549.3Q791.7 549.5 792.3 550.0Q792.9 550.4 793.3 551.0Q793.7 551.6 793.9 552.4L793.9 552.4L791.8 552.8Q791.7 552.4 791.5 552.0Q791.3 551.7 791.0 551.4Q790.7 551.1 790.2 551.0Q789.8 550.9 789.3 550.9L789.3 550.9Q788.4 550.9 787.7 551.4Q787.1 551.9 786.8 552.7Q786.4 553.6 786.4 554.7L786.4 554.7Q786.4 555.7 786.8 556.6Q787.1 557.4 787.7 557.9Q788.4 558.4 789.3 558.4L789.3 558.4Q789.8 558.4 790.3 558.3Q790.7 558.1 791.0 557.9Q791.3 557.6 791.5 557.3Q791.8 556.9 791.9 556.4L791.9 556.4L793.9 556.8Q793.7 557.6 793.3 558.2Q792.9 558.9 792.3 559.3Q791.7 559.8 790.9 560.0Q790.2 560.2 789.3 560.2ZM800.7 560.2L800.7 560.2Q799.1 560.2 798.0 559.5Q796.9 558.8 796.2 557.6Q795.6 556.3 795.6 554.7L795.6 554.7Q795.6 553.0 796.2 551.7Q796.9 550.5 798.0 549.8Q799.1 549.1 800.7 549.1L800.7 549.1Q802.2 549.1 803.3 549.8Q804.5 550.5 805.1 551.7Q805.7 553.0 805.7 554.7L805.7 554.7Q805.7 556.3 805.1 557.6Q804.5 558.8 803.3 559.5Q802.2 560.2 800.7 560.2ZM800.7 558.4L800.7 558.4Q801.6 558.4 802.3 557.9Q802.9 557.4 803.3 556.6Q803.6 555.7 803.6 554.7L803.6 554.7Q803.6 553.6 803.3 552.7Q802.9 551.9 802.3 551.4Q801.6 550.9 800.7 550.9L800.7 550.9Q799.7 550.9 799.1 551.4Q798.4 551.9 798.1 552.7Q797.8 553.6 797.8 554.7L797.8 554.7Q797.8 555.7 798.1 556.6Q798.4 557.4 799.1 557.9Q799.7 558.4 800.7 558.4ZM810.1 553.7L810.1 553.7L810.1 560L808.0 560L808.0 549.2L810.0 549.2L810.1 551.9L809.8 551.9Q810.3 550.4 811.2 549.7Q812.1 549.1 813.4 549.1L813.4 549.1Q814.5 549.1 815.3 549.5Q816.1 550 816.6 550.9Q817.1 551.8 817.1 553.2L817.1 553.2L817.1 560L814.9 560L814.9 553.4Q814.9 552.2 814.3 551.6Q813.7 550.9 812.7 550.9L812.7 550.9Q811.9 550.9 811.4 551.2Q810.8 551.6 810.5 552.2Q810.1 552.8 810.1 553.7ZM823.9 560.2L823.9 560.2Q822.6 560.2 821.5 559.5Q820.5 558.9 819.9 557.6Q819.3 556.4 819.3 554.6L819.3 554.6Q819.3 552.9 819.9 551.6Q820.5 550.4 821.5 549.7Q822.6 549.1 823.9 549.1L823.9 549.1Q824.8 549.1 825.4 549.4Q826.1 549.7 826.4 550.1Q826.8 550.5 827.0 550.9L827.0 550.9L827.1 550.9L827.1 545.4L829.3 545.4L829.3 560L827.2 560L827.2 558.3L827.0 558.3Q826.8 558.7 826.4 559.2Q826.0 559.6 825.4 559.9Q824.8 560.2 823.9 560.2ZM824.3 558.4L824.3 558.4Q825.3 558.4 825.9 557.9Q826.5 557.4 826.9 556.6Q827.2 555.7 827.2 554.6L827.2 554.6Q827.2 553.5 826.9 552.7Q826.5 551.8 825.9 551.3Q825.3 550.9 824.3 550.9L824.3 550.9Q823.4 550.9 822.8 551.4Q822.2 551.8 821.8 552.7Q821.5 553.5 821.5 554.6L821.5 554.6Q821.5 555.7 821.8 556.6Q822.2 557.4 822.8 557.9Q823.4 558.4 824.3 558.4ZM835.9 560.2L835.9 560.2Q834.7 560.2 833.8 559.9Q832.9 559.5 832.3 558.8Q831.7 558.2 831.5 557.2L831.5 557.2L833.6 556.8Q833.8 557.7 834.4 558.1Q835.0 558.5 835.9 558.5L835.9 558.5Q836.9 558.5 837.6 558.1Q838.2 557.7 838.2 557.1L838.2 557.1Q838.2 556.5 837.8 556.2Q837.4 555.8 836.6 555.7L836.6 555.7L834.8 555.3Q833.3 554.9 832.6 554.2Q831.8 553.4 831.8 552.3L831.8 552.3Q831.8 551.3 832.4 550.6Q832.9 549.9 833.8 549.5Q834.8 549.1 836.0 549.1L836.0 549.1Q837.2 549.1 838.0 549.4Q838.9 549.8 839.4 550.4Q839.9 551.1 840.1 551.9L840.1 551.9L838.2 552.3Q838.0 551.6 837.5 551.2Q837.0 550.7 836.0 550.7L836.0 550.7Q835.1 550.7 834.6 551.1Q834.0 551.5 834.0 552.2L834.0 552.2Q834.0 552.7 834.4 553.0Q834.8 553.4 835.6 553.6L835.6 553.6L837.4 554.0Q838.9 554.3 839.6 555.0Q840.3 555.7 840.3 556.9L840.3 556.9Q840.3 557.9 839.8 558.6Q839.2 559.4 838.2 559.8Q837.2 560.2 835.9 560.2Z " opacity="0.8"/></g><mask id="satori_om-id-3"><rect x="478" y="636" width="244" height="32" fill="#fff"/></mask><clipPath id="satori_cp-id-3-0"><rect x="478" y="636" width="32" height="32"/></clipPath><mask id="satori_om-id-3-0"><rect x="478" y="636" width="32" height="32" fill="#fff"/></mask><image x="478" y="636" width="32" height="32" href="data:image/svg+xml;utf8,%3Csvg  xmlns=%22http://www.w3.org/2000/svg%22 fill=%22none%22 stroke=%22%23fbbf24%22 stroke-width=%222%22 stroke-linecap=%22round%22 stroke-linejoin=%22round%22 width=%2224%22 height=%2224%22 viewBox=%220 0 24 24%22%3E%3Ccircle cx=%2212%22 cy=%2212%22 r=%2210%22%3E%3C/circle%3E%3Cpolyline points=%2212 6 12 12 16 14%22%3E%3C/polyline%3E%3C/svg%3E" preserveAspectRatio="none" clip-path="url(#satori_cp-id-3-0)" mask="url(#satori_om-id-3-0)"/><mask id="satori_om-id-3-0-0"><rect x="478" y="636" width="0" height="32" fill="#fff"/></mask><mask id="satori_om-id-3-0-1"><rect x="478" y="636" width="0" height="32" fill="#fff"/></mask><mask id="satori_om-id-3-1"><rect x="522" y="638" width="200" height="29" fill="#fff"/></mask><g  ><path fill="#fbbf24" d="M526.8 661L523.7 661L523.7 643.5L526.8 643.5L526.8 650.8L534.9 650.8L534.9 643.5L538.0 643.5L538.0 661L534.9 661L534.9 653.4L526.8 653.4L526.8 661ZM545.0 661.3L545.0 661.3Q543.7 661.3 542.7 660.8Q541.7 660.4 541.2 659.5Q540.6 658.6 540.6 657.4L540.6 657.4Q540.6 656.3 541.0 655.5Q541.4 654.8 542.1 654.4Q542.8 654.0 543.7 653.7Q544.6 653.5 545.6 653.4L545.6 653.4Q546.7 653.3 547.4 653.2Q548.1 653.1 548.4 652.9Q548.8 652.7 548.8 652.3L548.8 652.3L548.8 652.2Q548.8 651.6 548.5 651.1Q548.2 650.7 547.7 650.5Q547.2 650.2 546.5 650.2L546.5 650.2Q545.7 650.2 545.2 650.4Q544.6 650.7 544.3 651.1Q543.9 651.4 543.8 651.9L543.8 651.9L541.0 651.4Q541.3 650.3 542.1 649.5Q542.8 648.7 544.0 648.3Q545.1 647.9 546.5 647.9L546.5 647.9Q547.5 647.9 548.4 648.1Q549.4 648.3 550.1 648.9Q550.9 649.4 551.3 650.2Q551.8 651.1 551.8 652.3L551.8 652.3L551.8 661L548.9 661L548.9 659.2L548.8 659.2Q548.5 659.8 548.0 660.2Q547.5 660.7 546.7 661.0Q546.0 661.3 545.0 661.3ZM545.7 659.0L545.7 659.0Q546.7 659.0 547.4 658.6Q548.1 658.3 548.4 657.7Q548.8 657.1 548.8 656.3L548.8 656.3L548.8 654.8Q548.6 654.9 548.3 655.0Q548.0 655.1 547.5 655.2Q547.1 655.3 546.7 655.4Q546.3 655.4 545.9 655.5L545.9 655.5Q545.3 655.6 544.7 655.8Q544.2 656.0 543.9 656.4Q543.5 656.7 543.5 657.3L543.5 657.3Q543.5 657.9 543.8 658.2Q544.1 658.6 544.6 658.8Q545.1 659.0 545.7 659.0ZM557.9 665.9L554.9 665.9L554.9 648.1L557.8 648.1L557.8 650.1L558.0 650.1Q558.3 649.6 558.7 649.1Q559.2 648.6 559.9 648.2Q560.7 647.9 561.8 647.9L561.8 647.9Q563.3 647.9 564.5 648.7Q565.7 649.4 566.4 650.9Q567.1 652.4 567.1 654.6L567.1 654.6Q567.1 656.7 566.4 658.1Q565.8 659.6 564.5 660.4Q563.3 661.2 561.8 661.2L561.8 661.2Q560.7 661.2 560.0 660.9Q559.2 660.5 558.8 660.0Q558.3 659.5 558.0 659.0L558.0 659.0L557.9 659.0L557.9 665.9ZM561.0 658.7L561.0 658.7Q561.9 658.7 562.6 658.2Q563.3 657.7 563.7 656.7Q564.1 655.8 564.1 654.5L564.1 654.5Q564.1 653.3 563.7 652.4Q563.3 651.4 562.7 650.9Q562.0 650.4 561.0 650.4L561.0 650.4Q560.0 650.4 559.3 650.9Q558.6 651.4 558.2 652.3Q557.8 653.3 557.8 654.5L557.8 654.5Q557.8 655.8 558.2 656.7Q558.6 657.7 559.3 658.2Q560.0 658.7 561.0 658.7ZM572.7 665.9L569.7 665.9L569.7 648.1L572.6 648.1L572.6 650.1L572.8 650.1Q573.1 649.6 573.5 649.1Q574.0 648.6 574.7 648.2Q575.4 647.9 576.5 647.9L576.5 647.9Q578.1 647.9 579.3 648.7Q580.5 649.4 581.2 650.9Q581.9 652.4 581.9 654.6L581.9 654.6Q581.9 656.7 581.2 658.1Q580.5 659.6 579.3 660.4Q578.1 661.2 576.5 661.2L576.5 661.2Q575.5 661.2 574.7 660.9Q574.0 660.5 573.5 660.0Q573.1 659.5 572.8 659.0L572.8 659.0L572.7 659.0L572.7 665.9ZM575.7 658.7L575.7 658.7Q576.7 658.7 577.4 658.2Q578.1 657.7 578.5 656.7Q578.8 655.8 578.8 654.5L578.8 654.5Q578.8 653.3 578.5 652.4Q578.1 651.4 577.4 650.9Q576.7 650.4 575.7 650.4L575.7 650.4Q574.7 650.4 574.0 650.9Q573.3 651.4 573.0 652.3Q572.6 653.3 572.6 654.5L572.6 654.5Q572.6 655.8 573.0 656.7Q573.3 657.7 574.0 658.2Q574.7 658.7 575.7 658.7ZM584.4 665.7L584.4 665.7L584.9 663.3L585.6 663.4Q586.2 663.6 586.7 663.5Q587.1 663.4 587.5 663.0Q587.8 662.6 588.0 661.9L588.0 661.9L588.2 661.0L583.3 648.1L586.5 648.1L588.9 655.0Q589.3 656.2 589.6 657.4Q589.9 658.7 590.2 659.9L590.2 659.9L589.4 659.9Q589.7 658.7 590.0 657.4Q590.3 656.2 590.7 655.0L590.7 655.0L593.2 648.1L596.4 648.1L590.8 662.8Q590.4 663.8 589.8 664.5Q589.2 665.2 588.4 665.6Q587.5 666.0 586.4 666.0L586.4 666.0Q585.8 666.0 585.3 665.9Q584.7 665.8 584.4 665.7Z M607.5 661L604.3 661L604.3 643.5L607.8 643.5L613.9 653.2Q614.3 653.7 614.7 654.5Q615.1 655.2 615.5 656.1Q616.0 657.0 616.4 658.0L616.4 658.0L616.1 658.2Q616.0 657.3 615.9 656.3Q615.9 655.2 615.8 654.3Q615.8 653.4 615.8 652.8L615.8 652.8L615.8 643.5L619.0 643.5L619.0 661L615.5 661L610.0 652.3Q609.6 651.6 609.1 650.8Q608.6 650.0 608.1 648.9Q607.5 647.9 606.8 646.5L606.8 646.5L607.3 646.4Q607.3 647.7 607.4 648.9Q607.5 650.0 607.5 650.9Q607.5 651.8 607.5 652.3L607.5 652.3L607.5 661ZM627.9 661.3L627.9 661.3Q626.0 661.3 624.6 660.4Q623.2 659.6 622.4 658.1Q621.6 656.6 621.6 654.6L621.6 654.6Q621.6 652.6 622.4 651.1Q623.2 649.6 624.5 648.7Q625.9 647.9 627.8 647.9L627.8 647.9Q629.0 647.9 630.1 648.3Q631.1 648.7 632.0 649.5Q632.8 650.3 633.3 651.5Q633.7 652.8 633.7 654.4L633.7 654.4L633.7 655.4L623.0 655.4L623.0 653.3L632.2 653.3L630.8 653.9Q630.8 652.8 630.5 652.0Q630.1 651.2 629.4 650.7Q628.8 650.3 627.8 650.3L627.8 650.3Q626.8 650.3 626.1 650.7Q625.4 651.2 625.0 652.0Q624.6 652.8 624.6 653.7L624.6 653.7L624.6 655.1Q624.6 656.3 625.1 657.2Q625.5 658.0 626.2 658.5Q627.0 658.9 628.0 658.9L628.0 658.9Q628.7 658.9 629.2 658.7Q629.8 658.5 630.2 658.1Q630.6 657.7 630.8 657.2L630.8 657.2L633.5 657.6Q633.2 658.7 632.5 659.5Q631.7 660.4 630.6 660.8Q629.4 661.3 627.9 661.3ZM642.1 661L639 661L635.1 648.1L638.3 648.1L639.6 653.1Q639.9 654.4 640.2 655.8Q640.6 657.3 640.9 659.1L640.9 659.1L640.5 659.1Q640.8 657.4 641.2 655.9Q641.6 654.4 641.9 653.1L641.9 653.1L643.2 648.1L646.1 648.1L647.4 653.1Q647.7 654.4 648.0 655.9Q648.4 657.4 648.7 659.1L648.7 659.1L648.3 659.1Q648.6 657.4 649.0 655.9Q649.3 654.4 649.6 653.1L649.6 653.1L650.9 648.1L654.1 648.1L650.2 661L647.2 661L645.6 655.7Q645.4 654.9 645.2 654.0Q645.0 653.1 644.8 652.2Q644.5 651.3 644.3 650.4L644.3 650.4L644.9 650.4Q644.7 651.3 644.5 652.2Q644.3 653.1 644.0 654.0Q643.8 654.9 643.6 655.7L643.6 655.7L642.1 661Z M670.5 661L667.4 661L667.4 654.2L661.0 643.5L664.6 643.5L667.7 649.0Q668.2 649.9 668.6 650.7Q669.0 651.5 669.4 652.6L669.4 652.6L668.6 652.6Q669 651.5 669.4 650.6Q669.8 649.8 670.2 649.0L670.2 649.0L673.3 643.5L676.9 643.5L670.5 654.2L670.5 661ZM684.7 661.3L684.7 661.3Q682.7 661.3 681.3 660.4Q679.9 659.6 679.1 658.1Q678.4 656.6 678.4 654.6L678.4 654.6Q678.4 652.6 679.1 651.1Q679.9 649.6 681.3 648.7Q682.6 647.9 684.5 647.9L684.5 647.9Q685.7 647.9 686.8 648.3Q687.9 648.7 688.7 649.5Q689.5 650.3 690 651.5Q690.5 652.8 690.5 654.4L690.5 654.4L690.5 655.4L679.8 655.4L679.8 653.3L689.0 653.3L687.6 653.9Q687.6 652.8 687.2 652.0Q686.8 651.2 686.2 650.7Q685.5 650.3 684.5 650.3L684.5 650.3Q683.5 650.3 682.8 650.7Q682.1 651.2 681.7 652.0Q681.4 652.8 681.4 653.7L681.4 653.7L681.4 655.1Q681.4 656.3 681.8 657.2Q682.2 658.0 683.0 658.5Q683.7 658.9 684.7 658.9L684.7 658.9Q685.4 658.9 685.9 658.7Q686.5 658.5 686.9 658.1Q687.3 657.7 687.5 657.2L687.5 657.2L690.3 657.6Q690.0 658.7 689.2 659.5Q688.4 660.4 687.3 660.8Q686.1 661.3 684.7 661.3ZM696.6 661.3L696.6 661.3Q695.4 661.3 694.4 660.8Q693.4 660.4 692.8 659.5Q692.3 658.6 692.3 657.4L692.3 657.4Q692.3 656.3 692.7 655.5Q693.1 654.8 693.8 654.4Q694.5 654.0 695.4 653.7Q696.3 653.5 697.2 653.4L697.2 653.4Q698.4 653.3 699.1 653.2Q699.8 653.1 700.1 652.9Q700.4 652.7 700.4 652.3L700.4 652.3L700.4 652.2Q700.4 651.6 700.2 651.1Q699.9 650.7 699.4 650.5Q698.9 650.2 698.1 650.2L698.1 650.2Q697.4 650.2 696.8 650.4Q696.3 650.7 695.9 651.1Q695.6 651.4 695.5 651.9L695.5 651.9L692.6 651.4Q693.0 650.3 693.7 649.5Q694.5 648.7 695.6 648.3Q696.8 647.9 698.2 647.9L698.2 647.9Q699.1 647.9 700.1 648.1Q701.0 648.3 701.8 648.9Q702.6 649.4 703.0 650.2Q703.5 651.1 703.5 652.3L703.5 652.3L703.5 661L700.5 661L700.5 659.2L700.4 659.2Q700.1 659.8 699.6 660.2Q699.1 660.7 698.4 661.0Q697.7 661.3 696.6 661.3ZM697.4 659.0L697.4 659.0Q698.3 659.0 699.0 658.6Q699.7 658.3 700.1 657.7Q700.5 657.1 700.5 656.3L700.5 656.3L700.5 654.8Q700.3 654.9 700.0 655.0Q699.6 655.1 699.2 655.2Q698.8 655.3 698.3 655.4Q697.9 655.4 697.6 655.5L697.6 655.5Q696.9 655.6 696.4 655.8Q695.8 656.0 695.5 656.4Q695.2 656.7 695.2 657.3L695.2 657.3Q695.2 657.9 695.5 658.2Q695.8 658.6 696.3 658.8Q696.8 659.0 697.4 659.0ZM709.6 661L706.5 661L706.5 648.1L709.5 648.1L709.5 650.2L709.6 650.2Q709.9 649.1 710.8 648.5Q711.6 647.9 712.8 647.9L712.8 647.9Q713.1 647.9 713.3 647.9Q713.6 647.9 713.9 648.0L713.9 648.0L713.9 650.7Q713.7 650.7 713.3 650.6Q712.8 650.6 712.4 650.6L712.4 650.6Q711.6 650.6 711.0 650.9Q710.3 651.3 709.9 651.9Q709.6 652.6 709.6 653.5L709.6 653.5L709.6 661ZM719.3 655.6L716.5 655.6L716.3 643.5L719.6 643.5L719.3 655.6ZM717.9 661.2L717.9 661.2Q717.1 661.2 716.6 660.7Q716.1 660.2 716.1 659.4L716.1 659.4Q716.1 658.6 716.6 658.0Q717.1 657.5 717.9 657.5L717.9 657.5Q718.8 657.5 719.3 658.0Q719.8 658.6 719.8 659.4L719.8 659.4Q719.8 660.2 719.3 660.7Q718.8 661.2 717.9 661.2Z "/></g><mask id="satori_om-id-4"><rect x="534" y="714" width="133" height="22" fill="#fff"/></mask><g opacity="0.7"></g><mask id="satori_om-id-4-0"><rect x="534" y="714" width="133" height="22" fill="#fff"/></mask><g opacity="0.7"></g><g  ><path fill="#f1f5f9" d="M537.3 731L535.4 731L535.4 717.9L538.3 717.9L541.2 725.5Q541.3 725.8 541.5 726.3Q541.6 726.8 541.8 727.4Q541.9 728.0 542.1 728.5Q542.3 729.1 542.4 729.5L542.4 729.5L541.9 729.5Q542.0 729.1 542.2 728.5Q542.3 728.0 542.5 727.4Q542.7 726.8 542.8 726.3Q543.0 725.8 543.1 725.5L543.1 725.5L545.9 717.9L548.9 717.9L548.9 731L546.9 731L546.9 723.9Q546.9 723.5 546.9 723.0Q546.9 722.4 546.9 721.8Q546.9 721.2 547.0 720.6Q547.0 719.9 547.0 719.3L547.0 719.3L547.1 719.3Q547.0 720.0 546.7 720.7Q546.5 721.3 546.3 721.9Q546.1 722.6 546.0 723.1Q545.8 723.6 545.7 723.9L545.7 723.9L543.0 731L541.3 731L538.6 723.9Q538.4 723.6 538.2 723.1Q538.1 722.6 537.9 722.0Q537.7 721.4 537.5 720.7Q537.3 720.0 537.0 719.3L537.0 719.3L537.3 719.3Q537.3 719.9 537.3 720.5Q537.3 721.1 537.3 721.7Q537.3 722.4 537.3 722.9Q537.3 723.5 537.3 723.9L537.3 723.9L537.3 731ZM554.3 731.2L554.3 731.2Q553.3 731.2 552.6 730.9Q551.8 730.5 551.4 729.9Q551.0 729.2 551.0 728.2L551.0 728.2Q551.0 727.4 551.3 726.9Q551.6 726.4 552.1 726.1Q552.7 725.7 553.4 725.6Q554.0 725.4 554.7 725.3L554.7 725.3Q555.6 725.2 556.1 725.2Q556.7 725.1 556.9 725.0Q557.2 724.8 557.2 724.5L557.2 724.5L557.2 724.4Q557.2 723.9 557.0 723.5Q556.7 723.1 556.3 722.9Q555.9 722.7 555.3 722.7L555.3 722.7Q554.7 722.7 554.2 722.9Q553.7 723.1 553.5 723.4Q553.2 723.7 553.1 724.1L553.1 724.1L551.2 723.7Q551.5 722.8 552.1 722.3Q552.7 721.7 553.5 721.4Q554.3 721.2 555.3 721.2L555.3 721.2Q555.9 721.2 556.6 721.3Q557.3 721.5 557.8 721.9Q558.4 722.2 558.7 722.9Q559.1 723.5 559.1 724.5L559.1 724.5L559.1 731L557.2 731L557.2 729.7L557.1 729.7Q556.9 730.0 556.6 730.4Q556.2 730.7 555.6 731.0Q555.1 731.2 554.3 731.2ZM554.7 729.7L554.7 729.7Q555.5 729.7 556.0 729.4Q556.6 729.0 556.9 728.5Q557.2 728.0 557.2 727.5L557.2 727.5L557.2 726.3Q557.1 726.4 556.8 726.4Q556.5 726.5 556.2 726.6Q555.8 726.6 555.4 726.7Q555.1 726.7 554.8 726.8L554.8 726.8Q554.3 726.8 553.9 727.0Q553.4 727.2 553.1 727.5Q552.9 727.8 552.9 728.3L552.9 728.3Q552.9 728.7 553.1 729.0Q553.3 729.3 553.7 729.5Q554.2 729.7 554.7 729.7ZM565.2 731.2L565.2 731.2Q564.0 731.2 563.1 730.6Q562.2 730.0 561.6 728.8Q561.1 727.7 561.1 726.2L561.1 726.2Q561.1 724.6 561.6 723.5Q562.2 722.4 563.1 721.8Q564.0 721.2 565.2 721.2L565.2 721.2Q566.0 721.2 566.6 721.4Q567.2 721.7 567.5 722.1Q567.8 722.5 568.0 722.8L568.0 722.8L568.1 722.8L568.1 717.9L570.0 717.9L570.0 731L568.2 731L568.2 729.5L568.0 729.5Q567.8 729.9 567.5 730.2Q567.1 730.6 566.6 730.9Q566.0 731.2 565.2 731.2ZM565.6 729.6L565.6 729.6Q566.4 729.6 567.0 729.1Q567.6 728.7 567.9 727.9Q568.2 727.2 568.2 726.2L568.2 726.2Q568.2 725.1 567.9 724.4Q567.6 723.6 567.0 723.2Q566.4 722.8 565.6 722.8L565.6 722.8Q564.8 722.8 564.2 723.2Q563.7 723.7 563.4 724.4Q563.1 725.2 563.1 726.2L563.1 726.2Q563.1 727.1 563.4 727.9Q563.7 728.7 564.2 729.1Q564.8 729.6 565.6 729.6ZM576.7 731.2L576.7 731.2Q575.3 731.2 574.2 730.6Q573.2 730.0 572.6 728.8Q572.1 727.7 572.1 726.2L572.1 726.2Q572.1 724.7 572.6 723.6Q573.2 722.4 574.2 721.8Q575.2 721.2 576.5 721.2L576.5 721.2Q577.4 721.2 578.2 721.4Q579 721.7 579.6 722.3Q580.2 722.9 580.6 723.9Q580.9 724.8 580.9 726.1L580.9 726.1L580.9 726.7L573.1 726.7L573.1 725.3L579.9 725.3L579.1 725.7Q579.1 724.9 578.8 724.2Q578.5 723.5 577.9 723.1Q577.4 722.7 576.6 722.7L576.6 722.7Q575.7 722.7 575.2 723.1Q574.6 723.5 574.3 724.2Q574.0 724.8 574.0 725.6L574.0 725.6L574.0 726.5Q574.0 727.5 574.3 728.2Q574.7 728.9 575.3 729.3Q575.9 729.6 576.7 729.6L576.7 729.6Q577.3 729.6 577.7 729.5Q578.2 729.3 578.5 729.0Q578.8 728.7 579.0 728.2L579.0 728.2L580.8 728.5Q580.6 729.3 580.0 729.9Q579.4 730.5 578.6 730.9Q577.8 731.2 576.7 731.2Z M591.7 731L589.7 731L586.8 721.3L588.8 721.3L589.9 725.3Q590.1 726.2 590.4 727.3Q590.7 728.4 590.9 729.7L590.9 729.7L590.7 729.7Q590.9 728.5 591.2 727.4Q591.4 726.3 591.7 725.3L591.7 725.3L592.8 721.3L594.7 721.3L595.7 725.3Q596.0 726.2 596.3 727.3Q596.5 728.4 596.8 729.7L596.8 729.7L596.5 729.7Q596.7 728.5 597.0 727.4Q597.3 726.3 597.5 725.3L597.5 725.3L598.6 721.3L600.6 721.3L597.7 731L595.8 731L594.5 726.8Q594.4 726.2 594.2 725.5Q594.0 724.8 593.9 724.1Q593.7 723.4 593.5 722.7L593.5 722.7L593.9 722.7Q593.7 723.4 593.6 724.1Q593.4 724.8 593.2 725.5Q593.1 726.2 592.9 726.8L592.9 726.8L591.7 731ZM604.2 731L602.3 731L602.3 721.3L604.2 721.3L604.2 731ZM603.3 719.8L603.3 719.8Q602.8 719.8 602.4 719.4Q602.1 719.1 602.1 718.6L602.1 718.6Q602.1 718.1 602.4 717.8Q602.8 717.5 603.3 717.5L603.3 717.5Q603.8 717.5 604.1 717.8Q604.5 718.1 604.5 718.6L604.5 718.6Q604.5 719.1 604.1 719.4Q603.8 719.8 603.3 719.8ZM605.6 721.3L611.0 721.3L611.0 722.9L605.6 722.9L605.6 721.3ZM607.1 728.6L607.1 718.9L609.0 718.9L609.0 728.4Q609.0 729.0 609.3 729.2Q609.5 729.5 610.1 729.5L610.1 729.5Q610.3 729.5 610.5 729.5Q610.7 729.4 610.9 729.4L610.9 729.4L611.2 730.9Q610.9 731.0 610.6 731.1Q610.2 731.1 609.9 731.1L609.9 731.1Q608.5 731.1 607.8 730.4Q607.1 729.8 607.1 728.6L607.1 728.6ZM614.7 725.3L614.7 725.3L614.7 731L612.8 731L612.8 717.9L614.7 717.9L614.7 723.7L614.4 723.7Q614.8 722.4 615.7 721.8Q616.5 721.2 617.6 721.2L617.6 721.2Q618.6 721.2 619.4 721.6Q620.1 722 620.6 722.8Q621.0 723.6 621.0 724.9L621.0 724.9L621.0 731L619.1 731L619.1 725.1Q619.1 724.0 618.5 723.4Q618.0 722.8 617.0 722.8L617.0 722.8Q616.3 722.8 615.8 723.1Q615.3 723.4 615.0 723.9Q614.7 724.5 614.7 725.3Z M630.3 731L628.3 731L628.3 717.9L633.0 717.9Q634.5 717.9 635.5 718.4Q636.5 719.0 637.0 719.9Q637.6 720.9 637.6 722.1L637.6 722.1Q637.6 723.3 637.0 724.3Q636.5 725.2 635.5 725.8Q634.5 726.3 633.0 726.3L633.0 726.3L629.7 726.3L629.7 724.6L632.8 724.6Q633.8 724.6 634.4 724.3Q635.0 724.0 635.3 723.4Q635.6 722.9 635.6 722.1L635.6 722.1Q635.6 721.4 635.3 720.8Q635.0 720.3 634.4 719.9Q633.8 719.6 632.8 719.6L632.8 719.6L630.3 719.6L630.3 731ZM641.5 731L639.6 731L639.6 721.3L641.5 721.3L641.5 731ZM640.6 719.8L640.6 719.8Q640.1 719.8 639.7 719.4Q639.4 719.1 639.4 718.6L639.4 718.6Q639.4 718.1 639.7 717.8Q640.1 717.5 640.6 717.5L640.6 717.5Q641.1 717.5 641.4 717.8Q641.8 718.1 641.8 718.6L641.8 718.6Q641.8 719.1 641.4 719.4Q641.1 719.8 640.6 719.8ZM645.9 725.3L645.9 725.3L645.9 731L644.0 731L644.0 721.3L645.8 721.3L645.9 723.7L645.6 723.7Q646.0 722.4 646.9 721.8Q647.7 721.2 648.8 721.2L648.8 721.2Q649.8 721.2 650.6 721.6Q651.3 722 651.8 722.8Q652.2 723.6 652.2 724.9L652.2 724.9L652.2 731L650.3 731L650.3 725.1Q650.3 724.0 649.7 723.4Q649.2 722.8 648.2 722.8L648.2 722.8Q647.6 722.8 647.0 723.1Q646.5 723.4 646.2 723.9Q645.9 724.5 645.9 725.3ZM661.0 731L658.5 731L653.8 717.9L656.0 717.9L658.5 725.2Q658.8 726.1 659.2 727.3Q659.5 728.5 660 730.1L660 730.1L659.6 730.1Q660.0 728.5 660.4 727.3Q660.7 726.1 661.0 725.2L661.0 725.2L663.5 717.9L665.7 717.9L661.0 731Z " opacity="0.7"/></g></svg>